<?xml version="1.0" encoding="UTF-8"?>
<svg version="1.1" xmlns="http://www.w3.org/2000/svg" width="522" height="172">
<path d="M0 0 C0.96243622 -0.00478363 1.92487244 -0.00956726 2.91647339 -0.01449585 C4.9454716 -0.01789092 6.9745248 -0.00871603 9.00341797 0.01220703 C12.11418881 0.03903664 15.22137064 0.01241581 18.33203125 -0.01953125 C20.30469548 -0.01622823 22.27735747 -0.00982423 24.25 0 C25.18127716 -0.01012115 26.11255432 -0.02024231 27.072052 -0.03067017 C33.38728903 0.08445728 33.38728903 0.08445728 35.92480469 2.51586914 C37.50852443 7.18697299 38.70355428 11.89493348 39.8125 16.69921875 C40.07278488 17.79456436 40.33306976 18.88990997 40.60124207 20.01844788 C41.44756383 23.5860537 42.28236657 27.15624977 43.1171875 30.7265625 C44.27652804 35.63232269 45.44123369 40.53680569 46.60546875 45.44140625 C46.89336777 46.65807983 47.18126678 47.87475342 47.47789001 49.1282959 C49.21798724 56.46698692 51.00013025 63.79308683 52.84765625 71.10546875 C53.16790771 72.37327934 53.16790771 72.37327934 53.49462891 73.66670227 C54.47301224 77.52978053 55.45936573 81.39071846 56.45166016 85.25024414 C56.79467016 86.59910233 57.13761104 87.94797809 57.48046875 89.296875 C57.77477783 90.44043457 58.06908691 91.58399414 58.37231445 92.76220703 C58.9921875 95.6640625 58.9921875 95.6640625 58.9921875 99.6640625 C59.6521875 99.6640625 60.3121875 99.6640625 60.9921875 99.6640625 C61.09184814 98.62628662 61.19150879 97.58851074 61.29418945 96.51928711 C62.08478342 90.23571126 63.67420121 84.12871628 65.16015625 77.98046875 C65.48103014 76.63940707 65.80152272 75.29825411 66.12165833 73.95701599 C66.96548243 70.42627407 67.81445587 66.89679028 68.66455078 63.36755371 C69.67310332 59.17584684 70.67510606 54.98257005 71.6782093 50.7895565 C72.49758816 47.36629836 73.31924414 43.94361817 74.14596558 40.52212524 C75.70264997 34.07554144 77.23783602 27.6254736 78.71337891 21.15966797 C78.98128738 20.00023178 79.24919586 18.84079559 79.52522278 17.64622498 C80.02329066 15.48603682 80.51297169 13.3238912 80.99272156 11.15956116 C81.21337784 10.20963791 81.43403412 9.25971466 81.66137695 8.28100586 C81.84730911 7.45660507 82.03324127 6.63220428 82.22480774 5.78282166 C83.13635921 3.26599997 83.77266769 2.1789253 85.9921875 0.6640625 C88.80714417 0.2898407 88.80714417 0.2898407 92.26782227 0.29174805 C93.56248917 0.28551926 94.85715607 0.27929047 96.1910553 0.27287292 C97.6052387 0.28156008 99.01941834 0.29087796 100.43359375 0.30078125 C101.88183085 0.30129986 103.33006865 0.30078213 104.77830505 0.29927063 C107.81218994 0.29936033 110.84580894 0.30978534 113.87963867 0.32788086 C117.77271185 0.35058842 121.6653972 0.3511083 125.55851841 0.34436321 C128.54818686 0.34102575 131.53776651 0.34764872 134.52741814 0.35749245 C135.9631701 0.36134709 137.39893193 0.36249157 138.83468819 0.3609066 C140.8384637 0.36053672 142.8422263 0.37461585 144.84594727 0.3894043 C146.55778954 0.39631538 146.55778954 0.39631538 148.30421448 0.40336609 C150.9921875 0.6640625 150.9921875 0.6640625 152.9921875 2.6640625 C154.20511959 9.27957804 154.52941678 18.04291325 151.8828125 24.27734375 C150.0773929 26.36430155 148.15934509 27.95147943 145.9921875 29.6640625 C144.92219839 30.66253651 143.86174666 31.67128349 142.80859375 32.6875 C129.93183697 45.02871868 129.93183697 45.02871868 119.73242188 44.92773438 C118.72501953 44.90259766 117.71761719 44.87746094 116.6796875 44.8515625 C115.13958008 44.83125977 115.13958008 44.83125977 113.56835938 44.81054688 C111.04242841 44.77530133 108.5175809 44.7260295 105.9921875 44.6640625 C105.6621875 46.6440625 105.3321875 48.6240625 104.9921875 50.6640625 C105.54928909 50.65962128 106.10639069 50.65518005 106.68037415 50.65060425 C112.47137897 50.60640515 118.26233599 50.57621036 124.0534668 50.55419922 C126.21559597 50.54413299 128.3777115 50.53047896 130.53979492 50.51318359 C133.64505375 50.48896272 136.7501328 50.47758569 139.85546875 50.46875 C140.82430496 50.45842743 141.79314117 50.44810486 142.79133606 50.43746948 C143.6920433 50.43731842 144.59275055 50.43716736 145.52075195 50.43701172 C146.31351028 50.4325705 147.10626862 50.42812927 147.92304993 50.42355347 C149.9921875 50.6640625 149.9921875 50.6640625 152.9921875 52.6640625 C153.3641243 54.56280613 153.3641243 54.56280613 153.35968018 56.92201233 C153.36524933 57.81521683 153.37081848 58.70842133 153.3765564 59.62869263 C153.36273422 61.10231766 153.36273422 61.10231766 153.34863281 62.60571289 C153.35067719 63.63827713 153.35272156 64.67084137 153.35482788 65.73469543 C153.35784522 69.1605478 153.33933116 72.5859233 153.3203125 76.01171875 C153.31725668 78.38300965 153.31537921 80.75430234 153.31463623 83.12559509 C153.31002729 88.09983161 153.29557775 93.07390677 153.2734375 98.0480957 C153.24513932 104.439922 153.2342252 110.83162108 153.2297554 117.22350407 C153.22560835 122.12093898 153.21579712 127.01834789 153.20388031 131.91576958 C153.19816357 134.2734093 153.19340955 136.63105155 153.18961334 138.98869514 C153.18277567 142.2764442 153.1691556 145.56409019 153.15332031 148.85180664 C153.15220245 149.83624756 153.15108459 150.82068848 153.14993286 151.83496094 C153.14422272 152.72534561 153.13851257 153.61573029 153.13262939 154.53309631 C153.12965473 155.31125733 153.12668007 156.08941835 153.12361526 156.89116001 C152.9921875 158.6640625 152.9921875 158.6640625 151.9921875 159.6640625 C135.8221875 159.6640625 119.6521875 159.6640625 102.9921875 159.6640625 C102.6621875 126.6640625 102.3321875 93.6640625 101.9921875 59.6640625 C99.0221875 70.8840625 96.0521875 82.1040625 92.9921875 93.6640625 C90.72036161 101.8351292 88.44696108 110.00266856 86.12426758 118.15893555 C85.15813974 121.55224422 84.19694951 124.94692566 83.23632812 128.34179688 C82.60704935 130.55997486 81.97750267 132.77807688 81.34765625 134.99609375 C80.92881416 136.47442436 80.92881416 136.47442436 80.50151062 137.98262024 C78.43076719 145.24563419 76.21461535 152.44117197 73.9921875 159.6640625 C64.7521875 159.6640625 55.5121875 159.6640625 45.9921875 159.6640625 C44.05198614 154.4901922 42.40926393 149.83860748 41.07861328 144.55566406 C40.9106424 143.89411819 40.74267151 143.23257233 40.5696106 142.55097961 C40.02121563 140.38662342 39.47930954 138.22070071 38.9375 136.0546875 C38.5505953 134.52209696 38.16328886 132.98960779 37.77560425 131.45721436 C36.75750327 127.42836565 35.74493308 123.39814693 34.73352051 119.36761475 C33.72029022 115.33405917 32.70167473 111.30186465 31.68359375 107.26953125 C27.76498273 91.73973958 23.87410755 76.20306284 19.9921875 60.6640625 C19.98188004 61.88959335 19.97157257 63.11512421 19.96095276 64.37779236 C19.86339958 75.90027423 19.76068316 87.42269992 19.65284824 98.94509029 C19.59757058 104.86954277 19.54414298 110.79400013 19.49487305 116.71850586 C19.44730076 122.43083209 19.39496082 128.14309617 19.33924675 133.85534859 C19.31879075 136.03992742 19.30008317 138.22452331 19.28311348 140.409132 C19.25914105 143.4576322 19.22907708 146.50601372 19.19750977 149.55444336 C19.1917543 150.46722046 19.18599884 151.37999756 19.18006897 152.32043457 C19.10623966 158.55001034 19.10623966 158.55001034 17.9921875 159.6640625 C16.49348702 159.76237396 14.99020211 159.79204706 13.48828125 159.79345703 C12.05174194 159.79818527 12.05174194 159.79818527 10.58618164 159.80300903 C9.54453857 159.8009848 8.50289551 159.79896057 7.4296875 159.796875 C6.36806396 159.79783173 5.30644043 159.79878845 4.21264648 159.79977417 C1.96305278 159.80045614 -0.28654287 159.79860069 -2.53613281 159.79443359 C-5.99288321 159.7890856 -9.44950367 159.79437804 -12.90625 159.80078125 C-15.08593779 159.80012047 -17.2656255 159.79883932 -19.4453125 159.796875 C-20.48695557 159.79889923 -21.52859863 159.80092346 -22.60180664 159.80300903 C-23.55949951 159.79985687 -24.51719238 159.79670471 -25.50390625 159.79345703 C-26.35138428 159.79266144 -27.1988623 159.79186584 -28.07202148 159.79104614 C-30.0078125 159.6640625 -30.0078125 159.6640625 -31.0078125 158.6640625 C-31.10324345 157.27262561 -31.12969825 155.87637883 -31.12806702 154.48167419 C-31.12944168 153.57998505 -31.13081635 152.6782959 -31.13223267 151.74928284 C-31.12863739 150.75234909 -31.12504211 149.75541534 -31.12133789 148.72827148 C-31.12148392 147.68449341 -31.12162994 146.64071533 -31.1217804 145.56530762 C-31.12108076 142.09690307 -31.11328603 138.62855147 -31.10546875 135.16015625 C-31.10360475 132.76261932 -31.10218076 130.365082 -31.10118103 127.96754456 C-31.09735444 121.64310666 -31.08752296 115.31869156 -31.07647705 108.9942627 C-31.06626595 102.54630848 -31.06168406 96.09835059 -31.05664062 89.65039062 C-31.04590082 76.9882715 -31.02901369 64.32616821 -31.0078125 51.6640625 C-28.63390414 50.47710832 -27.20536299 50.54330417 -24.55810547 50.55053711 C-23.17690018 50.55065041 -23.17690018 50.55065041 -21.76779175 50.55076599 C-20.27398483 50.55850792 -20.27398483 50.55850792 -18.75 50.56640625 C-17.22271774 50.56852867 -17.22271774 50.56852867 -15.6645813 50.57069397 C-12.40396215 50.5763035 -9.14341099 50.58885762 -5.8828125 50.6015625 C-3.67578224 50.60657627 -1.46875091 50.61113939 0.73828125 50.61523438 C6.15627331 50.62627602 11.57422555 50.64302345 16.9921875 50.6640625 C16.9921875 49.0140625 16.9921875 47.3640625 16.9921875 45.6640625 C16.40558853 45.66628311 15.81898956 45.66850372 15.21461487 45.67079163 C9.13193366 45.6928446 3.04926373 45.70796914 -3.03344727 45.71899414 C-5.30623841 45.72403575 -7.5790263 45.73086887 -9.85180664 45.73950195 C-13.11084801 45.75157511 -16.36984667 45.75729237 -19.62890625 45.76171875 C-20.65181259 45.76688004 -21.67471893 45.77204132 -22.72862244 45.77735901 C-23.66952225 45.77743454 -24.61042206 45.77751007 -25.57983398 45.77758789 C-26.41256332 45.7798085 -27.24529266 45.78202911 -28.10325623 45.78431702 C-30.0078125 45.6640625 -30.0078125 45.6640625 -31.0078125 44.6640625 C-32.02844805 36.74004252 -33.20022539 26.6211004 -29.24609375 19.484375 C-26.95416158 17.29750594 -24.5865693 15.49839349 -22.0078125 13.6640625 C-20.71716935 12.28432169 -19.4641651 10.86807689 -18.2578125 9.4140625 C-17.18934688 8.15133041 -16.10487424 6.90203126 -15.0078125 5.6640625 C-14.35409668 4.81312012 -13.70038086 3.96217773 -13.02685547 3.08544922 C-8.74814517 -0.34623837 -5.33783108 -0.05826504 0 0 Z " fill="#203468" transform="translate(35.0078125,7.3359375)"/>
<path d="M0 0 C0.86018234 -0.0065712 1.72036469 -0.0131424 2.60661316 -0.01991272 C5.46658403 -0.03969841 8.32650224 -0.05132085 11.18652344 -0.0612793 C12.64863377 -0.06739259 12.64863377 -0.06739259 14.14028168 -0.07362938 C19.300713 -0.09451402 24.46111754 -0.10880454 29.62158203 -0.11816406 C34.95610192 -0.129225 40.29020426 -0.16361449 45.62457657 -0.20333576 C49.72180971 -0.22946872 53.81894298 -0.23785302 57.91625214 -0.24144554 C59.88265549 -0.24632121 61.8490541 -0.25796299 63.81537628 -0.27648354 C66.56866068 -0.3008012 69.3208601 -0.29992333 72.07421875 -0.29296875 C73.29322121 -0.31218384 73.29322121 -0.31218384 74.53684998 -0.33178711 C79.5726453 -0.28542863 82.10640691 0.44784961 85.79589844 4.17700195 C86.95227053 5.40112336 88.07562908 6.65750733 89.15917969 7.9465332 C92.65497985 12.03173604 96.29094879 15.95720466 99.98339844 19.86450195 C101.2923239 21.25611711 102.60091248 22.6480492 103.90917969 24.0402832 C104.55709473 24.72944824 105.20500977 25.41861328 105.87255859 26.12866211 C108.81425486 29.26154249 111.74715947 32.40236011 114.67089844 35.55200195 C115.17645264 36.09300537 115.68200684 36.63400879 116.20288086 37.19140625 C120.6409912 41.98301498 120.95418838 44.80434992 120.98876953 51.18408203 C121.00103577 52.42603836 121.00103577 52.42603836 121.0135498 53.69308472 C121.03843609 56.44422689 121.05493712 59.19531695 121.06933594 61.9465332 C121.07465961 62.88830603 121.07998329 63.83007885 121.08546829 64.80039024 C121.11222681 69.79497845 121.13158424 74.78954155 121.14599609 79.78417969 C121.15928122 83.90159592 121.18702886 88.01851018 121.22802734 92.13574219 C121.27763545 97.11778005 121.30215302 102.09936598 121.30922318 107.08164024 C121.3158948 108.97167577 121.33100875 110.86170287 121.35511398 112.75159645 C121.56145106 129.92277971 118.44686973 143.20918254 106.08886719 155.93481445 C101.11491189 160.34211661 96.99691247 160.30247179 90.53417969 160.30639648 C89.8080397 160.3081488 89.08189972 160.30990112 88.33375549 160.31170654 C85.92527893 160.31611474 83.51687581 160.31318334 81.10839844 160.30981445 C79.40999335 160.31048952 77.71158835 160.31146124 76.01318359 160.31271362 C72.43537485 160.31419062 68.857591 160.31204235 65.27978516 160.30737305 C60.78200217 160.30177842 56.28427972 160.3049756 51.78649902 160.31082535 C31.43288539 160.33312281 11.13036369 160.12836166 -9.20410156 159.17700195 C-9.50663338 148.31968221 -9.73695121 137.46338022 -9.8776598 126.60268879 C-9.94523115 121.55814545 -10.03670599 116.51650519 -10.18481445 111.47363281 C-10.32711524 106.59742904 -10.40400376 101.72399792 -10.43750572 96.84587669 C-10.46134525 94.99452262 -10.50790358 93.14330379 -10.5785923 91.29314613 C-11.13656059 76.06990894 -11.13656059 76.06990894 -6.36630249 70.21762085 C-3.6875013 67.3724769 -0.78977773 64.87702889 2.26812172 62.45035362 C4.38305487 60.68762637 6.11470935 58.67532817 7.85839844 56.55200195 C12.91711439 50.40640008 12.91711439 50.40640008 16.84741211 49.92651367 C19.35801698 49.84495556 21.84726611 49.86671971 24.35839844 49.92700195 C25.65293945 49.93473633 25.65293945 49.93473633 26.97363281 49.94262695 C30.55336655 49.98713025 33.37309924 50.03606889 36.79589844 51.17700195 C37.12589844 71.96700195 37.45589844 92.75700195 37.79589844 114.17700195 C50.99589844 114.17700195 64.19589844 114.17700195 77.79589844 114.17700195 C78.11966871 106.75341218 78.39728951 99.35475032 78.56494141 91.9296875 C78.63485715 89.41223754 78.73003512 86.89534593 78.85205078 84.37988281 C79.93649536 66.73214715 79.93649536 66.73214715 73.04199219 51.0168457 C65.4413274 43.28620346 54.47946223 43.62043482 44.32855988 43.50034523 C39.38859009 43.49353521 34.45425607 43.6070299 29.51641846 43.74176025 C25.27603465 43.84260743 21.03534243 43.86298295 16.79394531 43.88793945 C12.03772471 43.91844014 7.28294309 43.95673226 2.52763367 44.05801392 C1.81131775 44.07228928 1.09500183 44.08656464 0.35697937 44.10127258 C-1.57698596 44.14164857 -3.51082903 44.1877654 -5.44465637 44.23428345 C-8.20410156 44.17700195 -8.20410156 44.17700195 -9.20410156 43.17700195 C-9.30527077 40.0861873 -9.34378714 37.0181764 -9.33691406 33.92700195 C-9.33787079 32.99855469 -9.33882751 32.07010742 -9.33981323 31.11352539 C-9.34049511 29.14640231 -9.33864028 27.17927699 -9.33447266 25.2121582 C-9.32912451 22.18997169 -9.33441738 19.16793381 -9.34082031 16.14575195 C-9.34015953 14.23950162 -9.33887837 12.33325139 -9.33691406 10.42700195 C-9.33893829 9.51660156 -9.34096252 8.60620117 -9.3430481 7.66821289 C-9.31127882 -0.77327923 -7.74734124 0.02538102 0 0 Z " fill="#203569" transform="translate(264.2041015625,7.822998046875)"/>
<path d="M0 0 C0.02332725 20.45298474 0.04097832 40.90596679 0.05181217 61.35896206 C0.0569755 70.85495383 0.06401889 80.35093735 0.07543945 89.84692383 C0.08538517 98.12052845 0.09185316 106.39412711 0.09408849 114.66773754 C0.09539579 119.0513359 0.09848285 123.43491716 0.10573006 127.81851006 C0.11248851 131.939635 0.11461732 136.06073573 0.11310768 140.18186569 C0.11338409 141.69886341 0.11539025 143.2158619 0.11920547 144.73285484 C0.12414001 146.79507301 0.1229992 148.85719826 0.12025452 150.91941833 C0.12117631 152.07626853 0.1220981 153.23311872 0.12304783 154.42502499 C0 157 0 157 -1 158 C-10.8659849 159.17252792 -19.27053915 157.11418996 -27.35546875 151.30859375 C-34.07692709 145.26810867 -37.60853734 136.84145611 -39 128 C-39.15670413 124.99822834 -39.16740584 121.99931179 -39.17700195 118.99389648 C-39.18357315 118.09560623 -39.19014435 117.19731598 -39.19691467 116.27180481 C-39.21659049 113.30490017 -39.22829951 110.33804609 -39.23828125 107.37109375 C-39.24235678 106.35359606 -39.2464323 105.33609837 -39.25063133 104.28776741 C-39.27147089 98.8987969 -39.28577998 93.50985166 -39.29516602 88.12084961 C-39.30620689 82.57863426 -39.34058628 77.03682299 -39.38033772 71.49475002 C-39.40659512 67.2128072 -39.41486609 62.93095918 -39.41844749 58.64894295 C-39.42329235 56.60738468 -39.43484571 54.56583004 -39.45348549 52.52435112 C-39.58857496 36.74425271 -38.509347 23.14466975 -27.1875 11.06640625 C-20.80438115 5.08223233 -9.08120021 -3.02706674 0 0 Z " fill="#203468" transform="translate(435,9)"/>
<path d="M0 0 C0.80671143 0.00142502 1.61342285 0.00285004 2.44458008 0.00431824 C3.35892822 0.00124161 4.27327637 -0.00183502 5.21533203 -0.00500488 C6.2049292 0.00218063 7.19452637 0.00936615 8.21411133 0.01676941 C9.73427856 0.01745674 9.73427856 0.01745674 11.28515625 0.01815796 C13.43043181 0.02118247 15.57570514 0.02907466 17.72094727 0.04142761 C21.01301821 0.05966286 24.30480771 0.06193748 27.59692383 0.06169128 C29.67765544 0.06660717 31.75838513 0.0724358 33.83911133 0.07926941 C34.8287085 0.08038223 35.81830566 0.08149506 36.83789062 0.0826416 C37.75223877 0.08902145 38.66658691 0.09540131 39.60864258 0.10197449 C40.81870972 0.10769218 40.81870972 0.10769218 42.05322266 0.11352539 C44.02661133 0.24723816 44.02661133 0.24723816 46.02661133 1.24723816 C46.04994181 15.18103088 46.06752482 29.11482058 46.0784235 43.04862881 C46.08365301 49.51791496 46.09075189 55.98718805 46.10205078 62.45646667 C46.11287725 68.69394116 46.11888765 74.93140303 46.12148857 81.16888618 C46.12334326 83.55444093 46.12696469 85.93999495 46.13234138 88.32554436 C46.13954862 91.65419407 46.1406024 94.98279095 46.14013672 98.31144714 C46.14373199 99.30838089 46.14732727 100.30531464 46.15103149 101.3324585 C46.14965683 102.23414764 46.14828217 103.13583679 46.14686584 104.06484985 C46.14778764 104.85298285 46.14870943 105.64111586 46.14965916 106.45313168 C46.02661133 108.24723816 46.02661133 108.24723816 45.02661133 109.24723816 C43.52791085 109.34554962 42.02462594 109.37522272 40.52270508 109.37663269 C39.08616577 109.38136093 39.08616577 109.38136093 37.62060547 109.38618469 C36.5789624 109.38416046 35.53731934 109.38213623 34.46411133 109.38005066 C33.40248779 109.38100739 32.34086426 109.38196411 31.24707031 109.38294983 C28.99747661 109.3836318 26.74788096 109.38177635 24.49829102 109.37760925 C21.04154061 109.37226126 17.58492016 109.3775537 14.12817383 109.38395691 C11.94848604 109.38329613 9.76879833 109.38201497 7.58911133 109.38005066 C6.54746826 109.38207489 5.5058252 109.38409912 4.43261719 109.38618469 C3.47492432 109.38303253 2.51723145 109.37988037 1.53051758 109.37663269 C0.68303955 109.3758371 -0.16443848 109.3750415 -1.03759766 109.3742218 C-2.97338867 109.24723816 -2.97338867 109.24723816 -3.97338867 108.24723816 C-4.07308751 106.87314039 -4.10413442 105.49397866 -4.10710144 104.11627197 C-4.11136642 103.2258873 -4.11563141 102.33550262 -4.12002563 101.4181366 C-4.11957245 100.43369568 -4.11911926 99.44925476 -4.11865234 98.4349823 C-4.12201096 97.40417038 -4.12536957 96.37335846 -4.12882996 95.31130981 C-4.13837198 91.88499261 -4.14028468 88.4587241 -4.14135742 85.03239441 C-4.14456768 82.66206847 -4.14793157 80.29174274 -4.15144348 77.92141724 C-4.15744286 72.9454655 -4.15928255 67.96953115 -4.15869141 62.99357605 C-4.15858972 56.60291832 -4.17224471 50.21237155 -4.18946362 43.82174015 C-4.20055668 38.92427046 -4.20261145 34.02682782 -4.20208168 29.12934685 C-4.20326577 26.77252762 -4.20771134 24.41570777 -4.21541405 22.05890083 C-4.22515996 18.76881663 -4.22235735 15.47897629 -4.21630859 12.18888855 C-4.2219281 11.20647186 -4.22754761 10.22405518 -4.2333374 9.21186829 C-4.22914291 8.31866379 -4.22494843 7.42545929 -4.22062683 6.50518799 C-4.2211716 5.72664994 -4.22171637 4.9481119 -4.22227764 4.14598179 C-3.8549554 1.34372517 -2.78770788 0.34926103 0 0 Z " fill="#203569" transform="translate(196.973388671875,57.75276184082031)"/>
<path d="M0 0 C0.69771011 0.00359528 1.39542023 0.00719055 2.11427307 0.01089478 C3.2117688 0.01067574 3.2117688 0.01067574 4.33143616 0.01045227 C6.76094989 0.0111515 9.19038789 0.01894432 11.61988831 0.02676392 C13.29997719 0.02862806 14.98006662 0.03005198 16.66015625 0.03105164 C21.09071849 0.03487709 25.52124815 0.04470761 29.95179749 0.05575562 C34.46941182 0.06596914 38.98703139 0.07054913 43.50465393 0.07559204 C52.37511098 0.08632986 61.24554381 0.10340661 70.11598206 0.12442017 C71.8035704 3.49959686 71.25751564 7.32297615 71.24879456 11.03457642 C71.24975128 11.91721664 71.25070801 12.79985687 71.25169373 13.70924377 C71.25237474 15.57623363 71.2505259 17.44322586 71.24635315 19.31021118 C71.24099745 22.17867305 71.24630404 25.04697878 71.25270081 27.91543579 C71.25204014 29.72598301 71.2507592 31.53653014 71.24879456 33.34707642 C71.25081879 34.21059219 71.25284302 35.07410797 71.25492859 35.96379089 C71.23093645 42.00946577 71.23093645 42.00946577 70.11598206 43.12442017 C67.74297336 43.2193675 65.39919503 43.25001336 63.02589417 43.23794556 C62.28447678 43.23809158 61.54305939 43.23823761 60.7791748 43.23838806 C58.31719585 43.23768882 55.85529162 43.22989591 53.39332581 43.22207642 C51.69081666 43.22021228 49.98830699 43.21878836 48.28579712 43.2177887 C43.79605132 43.21396319 39.30633767 43.20413263 34.81660461 43.19308472 C30.23866714 43.1828713 25.6607245 43.17829123 21.08277893 43.17324829 C12.09383248 43.16251039 3.10490994 43.14543358 -5.88401794 43.12442017 C-5.90866368 37.1612885 -5.92685194 31.19818622 -5.93894958 25.23501587 C-5.94399073 23.20473718 -5.95082351 21.17446214 -5.9594574 19.14419556 C-5.97153262 16.2326467 -5.97724829 13.32114567 -5.98167419 10.40957642 C-5.98683548 9.49603897 -5.99199677 8.58250153 -5.99731445 7.64128113 C-5.99750963 5.4686659 -5.94613599 3.29614721 -5.88401794 1.12442017 C-4.22236587 -0.53723191 -2.21885765 0.00482291 0 0 Z " fill="#203469" transform="translate(447.88401794433594,123.87557983398438)"/>
<path d="M0 0 C0.71055038 -0.00175232 1.42110077 -0.00350464 2.15318298 -0.00531006 C4.51295378 -0.00972824 6.87265025 -0.00679072 9.23242188 -0.00341797 C10.86527521 -0.00409102 12.49812845 -0.00506105 14.13098145 -0.00631714 C17.55754549 -0.00779407 20.98408351 -0.00563973 24.41064453 -0.00097656 C28.81271689 0.00472073 33.21472828 0.00144169 37.6167984 -0.00454903 C40.98985253 -0.00815478 44.3628921 -0.00701599 47.73594666 -0.00442123 C49.35953275 -0.003752 50.98312014 -0.00458025 52.60670471 -0.00690079 C54.87195358 -0.00942755 57.13710238 -0.00558641 59.40234375 0 C61.33974426 0.00119339 61.33974426 0.00119339 63.31628418 0.00241089 C66.20117188 0.12939453 66.20117188 0.12939453 67.20117188 1.12939453 C68.64910809 9.70869293 69.71224648 20.22165056 64.54882812 27.64501953 C61.94790966 30.78833867 59.10110346 33.63065505 56.04153442 36.3270874 C54.15058239 38.06945572 54.15058239 38.06945572 52.76477051 40.17312622 C50.38200302 43.5228468 48.56363021 45.77609607 44.49305725 46.83163452 C41.20254443 47.05430688 38.00100967 47.02949466 34.70507812 46.91064453 C33.51639633 46.89932495 32.32771454 46.88800537 31.10301208 46.87634277 C27.32156444 46.8317043 23.54396538 46.73135016 19.76367188 46.62939453 C17.19406533 46.58925202 14.62439911 46.55275263 12.0546875 46.52001953 C5.76887826 46.43200945 -0.51469999 46.29829259 -6.79882812 46.12939453 C-8.22278484 42.91503439 -9.04686573 40.42316777 -8.94995117 36.90576172 C-8.92453499 35.70992462 -8.92453499 35.70992462 -8.89860535 34.4899292 C-8.86954605 33.64392151 -8.84048676 32.79791382 -8.81054688 31.92626953 C-8.78789261 31.04787415 -8.76523834 30.16947876 -8.74189758 29.26446533 C-8.69208448 27.41526317 -8.63714386 25.56619288 -8.57739258 23.71728516 C-8.48620943 20.8756955 -8.41173136 18.03403142 -8.33984375 15.19189453 C-8.28938728 13.39499187 -8.23798816 11.59811537 -8.18554688 9.80126953 C-8.16256027 8.94716492 -8.13957367 8.0930603 -8.1158905 7.21307373 C-7.86440198 -0.26107124 -7.34181966 0.00452238 0 0 Z " fill="#203468" transform="translate(449.798828125,7.87060546875)"/>
<path d="M0 0 C1.24123878 0.00213753 1.24123878 0.00213753 2.5075531 0.00431824 C3.44514969 0.00124161 4.38274628 -0.00183502 5.34875488 -0.00500488 C6.36336288 0.00218063 7.37797089 0.00936615 8.42332458 0.01676941 C9.9803434 0.01745674 9.9803434 0.01745674 11.56881714 0.01815796 C13.76536704 0.02118233 15.96191476 0.02907411 18.15843201 0.04142761 C21.53391556 0.05968136 24.90912497 0.06193737 28.28465271 0.06169128 C30.41421239 0.06660638 32.5437702 0.07243467 34.67332458 0.07926941 C35.68995682 0.08038223 36.70658905 0.08149506 37.75402832 0.0826416 C38.68847275 0.08902145 39.62291718 0.09540131 40.5856781 0.10197449 C41.41237503 0.10578629 42.23907196 0.10959808 43.09082031 0.11352539 C44.98191833 0.24723816 44.98191833 0.24723816 45.98191833 1.24723816 C46.07977175 2.59268143 46.10989819 3.94316379 46.11131287 5.29216003 C46.11446503 6.14974915 46.11761719 7.00733826 46.12086487 7.89091492 C46.11884064 8.82318909 46.11681641 9.75546326 46.11473083 10.71598816 C46.11568756 11.66663147 46.11664429 12.61727478 46.11763 13.59672546 C46.1183119 15.61092698 46.11645695 17.62513068 46.11228943 19.639328 C46.10694131 22.7339417 46.11223411 25.82841026 46.11863708 28.92301941 C46.11797631 30.87484265 46.11669515 32.8266658 46.11473083 34.77848816 C46.11675507 35.71076233 46.1187793 36.6430365 46.12086487 37.6035614 C46.11613663 38.88994507 46.11613663 38.88994507 46.11131287 40.20231628 C46.11051727 40.96096985 46.10972168 41.71962341 46.10890198 42.50126648 C45.98191833 44.24723816 45.98191833 44.24723816 44.98191833 45.24723816 C43.48321785 45.34554962 41.97993295 45.37522272 40.47801208 45.37663269 C39.04147278 45.38136093 39.04147278 45.38136093 37.57591248 45.38618469 C36.53426941 45.38416046 35.49262634 45.38213623 34.41941833 45.38005066 C33.3577948 45.38100739 32.29617126 45.38196411 31.20237732 45.38294983 C28.95278362 45.3836318 26.70318797 45.38177635 24.45359802 45.37760925 C20.99684762 45.37226126 17.54022716 45.3775537 14.08348083 45.38395691 C11.90379305 45.38329613 9.72410534 45.38201497 7.54441833 45.38005066 C6.50277527 45.38207489 5.4611322 45.38409912 4.38792419 45.38618469 C3.43023132 45.38303253 2.47253845 45.37988037 1.48582458 45.37663269 C0.63834656 45.3758371 -0.20913147 45.3750415 -1.08229065 45.3742218 C-3.01808167 45.24723816 -3.01808167 45.24723816 -4.01808167 44.24723816 C-4.13168459 41.16812157 -4.18227271 38.1122835 -4.18605042 35.03239441 C-4.18937881 34.10631882 -4.19270721 33.18024323 -4.19613647 32.22610474 C-4.20120974 30.26318358 -4.20354468 28.30025376 -4.2033844 26.33732605 C-4.20556984 23.32603305 -4.22371841 20.31510682 -4.24269104 17.30387878 C-4.24562502 15.40088525 -4.24760979 13.49788997 -4.24855042 11.59489441 C-4.25573593 10.6896553 -4.26292145 9.7844162 -4.27032471 8.85174561 C-4.26724808 8.01425278 -4.26417145 7.17675995 -4.26100159 6.31388855 C-4.26242661 5.57522049 -4.26385162 4.83655243 -4.26531982 4.07550049 C-3.8868663 1.27693439 -2.75977432 0.33810402 0 0 Z " fill="#1F3469" transform="translate(197.01808166503906,7.7527618408203125)"/>
<path d="M0 0 C0.33 0 0.66 0 1 0 C1 1.65 1 3.3 1 5 C10.57 5 20.14 5 30 5 C29.67 5.66 29.34 6.32 29 7 C20.42 7.33 11.84 7.66 3 8 C1.78120376 10.82847521 1.78120376 10.82847521 2.4296875 13.140625 C3.20479008 17.02675572 3.14499197 20.7982545 3.125 24.75 C3.12886719 25.52988281 3.13273438 26.30976562 3.13671875 27.11328125 C3.12670133 32.87329867 3.12670133 32.87329867 2 34 C1.92773498 35.85287502 1.9161878 37.70833878 1.9375 39.5625 C1.94652344 40.57441406 1.95554688 41.58632812 1.96484375 42.62890625 C1.97644531 43.41136719 1.98804688 44.19382813 2 45 C2.66 45 3.32 45 4 45 C4.02701408 47.10409639 4.04640223 49.20829178 4.0625 51.3125 C4.07410156 52.48425781 4.08570313 53.65601563 4.09765625 54.86328125 C4 58 4 58 3 61 C2.85930198 63.30229833 2.77425045 65.60813682 2.71875 67.9140625 C2.70065781 68.59730087 2.68256561 69.28053925 2.66392517 69.98448181 C2.62548055 71.44404401 2.58895336 72.90365776 2.5541687 74.36331177 C2.46422289 78.11879017 2.35968661 81.87384488 2.25390625 85.62890625 C2.23344742 86.36086716 2.21298859 87.09282806 2.19190979 87.8469696 C1.96790475 95.57746706 1.55349179 103.28644415 1 111 C3.73106511 111.91035504 5.29893239 112.12215713 8.10424805 112.11352539 C8.92487228 112.11344986 9.74549652 112.11337433 10.59098816 112.11329651 C11.47232925 112.10813522 12.35367035 112.10297394 13.26171875 112.09765625 C14.16751175 112.0962413 15.07330475 112.09482635 16.00654602 112.09336853 C18.90023091 112.08777001 21.79383849 112.07521781 24.6875 112.0625 C26.64908742 112.05748481 28.61067606 112.05292193 30.57226562 112.04882812 C35.38154021 112.03780107 40.190757 112.02053747 45 112 C46.15149328 109.69701344 46.12336988 108.41003902 46.12025452 105.84921265 C46.12162918 104.97980545 46.12300385 104.11039825 46.12442017 103.21464539 C46.12082489 102.25870987 46.11722961 101.30277435 46.11352539 100.31787109 C46.11367142 99.31296127 46.11381744 98.30805145 46.1139679 97.27268982 C46.11326929 93.93958402 46.10547933 90.60653358 46.09765625 87.2734375 C46.09579188 84.96701081 46.09436807 82.66058372 46.09336853 80.35415649 C46.08954482 74.27468783 46.07971576 68.19524294 46.06866455 62.11578369 C46.0584473 55.91573407 46.05387024 49.71568061 46.04882812 43.515625 C46.03809338 31.34373954 46.02101869 19.17187174 46 7 C43.03 7 40.06 7 37 7 C37 6.67 37 6.34 37 6 C38.43534841 5.7773254 39.87345525 5.57238094 41.3125 5.375 C42.51326172 5.20097656 42.51326172 5.20097656 43.73828125 5.0234375 C46 5 46 5 49 7 C49.3719368 8.89874363 49.3719368 8.89874363 49.36749268 11.25794983 C49.37584641 12.59775658 49.37584641 12.59775658 49.3843689 13.96463013 C49.37515411 14.94704681 49.36593933 15.9294635 49.35644531 16.94165039 C49.35951187 18.49049675 49.35951187 18.49049675 49.36264038 20.07063293 C49.36565772 23.4964853 49.34714366 26.9218608 49.328125 30.34765625 C49.32506918 32.71894715 49.32319171 35.09023984 49.32244873 37.46153259 C49.31783979 42.43576911 49.30339025 47.40984427 49.28125 52.3840332 C49.25295182 58.7758595 49.2420377 65.16755858 49.2375679 71.55944157 C49.23342085 76.45687648 49.22360962 81.35428539 49.21169281 86.25170708 C49.20597607 88.6093468 49.20122205 90.96698905 49.19742584 93.32463264 C49.19058817 96.6123817 49.1769681 99.90002769 49.16113281 103.18774414 C49.16001495 104.17218506 49.15889709 105.15662598 49.15774536 106.17089844 C49.15203522 107.06128311 49.14632507 107.95166779 49.14044189 108.86903381 C49.13746723 109.64719483 49.13449257 110.42535585 49.13142776 111.22709751 C49 113 49 113 48 114 C31.83 114 15.66 114 -1 114 C-1.33 81 -1.66 48 -2 14 C-2.66 16.64 -3.32 19.28 -4 22 C-4.66 21.34 -5.32 20.68 -6 20 C-5.609375 16.8125 -5.609375 16.8125 -4.75 13 C-4.47671875 11.741875 -4.2034375 10.48375 -3.921875 9.1875 C-3 6 -3 6 -1 4 C-0.3574765 1.93125966 -0.3574765 1.93125966 0 0 Z " fill="#2C3563" transform="translate(139,53)"/>
<path d="M0 0 C0.82741699 0.01047363 1.65483398 0.02094727 2.50732422 0.03173828 C3.40322266 0.03818359 4.29912109 0.04462891 5.22216797 0.05126953 C6.62789062 0.07640625 6.62789062 0.07640625 8.06201172 0.10205078 C9.00689453 0.11107422 9.95177734 0.12009766 10.92529297 0.12939453 C13.26278464 0.15300556 15.59977295 0.18593562 17.93701172 0.22705078 C16.94701172 1.71205078 16.94701172 1.71205078 15.93701172 3.22705078 C10.32701172 3.22705078 4.71701172 3.22705078 -1.06298828 3.22705078 C-1.06298828 37.54705078 -1.06298828 71.86705078 -1.06298828 107.22705078 C13.45701172 107.22705078 27.97701172 107.22705078 42.93701172 107.22705078 C42.93701172 72.90705078 42.93701172 38.58705078 42.93701172 3.22705078 C40.62701172 3.55705078 38.31701172 3.88705078 35.93701172 4.22705078 C34.26735721 3.90902135 32.60022653 3.57720127 30.93701172 3.22705078 C29.26546272 3.5349677 27.59895625 3.87091981 25.93701172 4.22705078 C23.60399186 4.26529701 21.26989664 4.27279362 18.93701172 4.22705078 C19.93701172 2.22705078 19.93701172 2.22705078 22.93701172 0.22705078 C25.17358398 -0.01586914 25.17358398 -0.01586914 27.75341797 -0.00341797 C28.6821875 -0.00148437 29.61095703 0.00044922 30.56787109 0.00244141 C31.5353125 0.0146875 32.50275391 0.02693359 33.49951172 0.03955078 C34.47082031 0.04019531 35.44212891 0.04083984 36.44287109 0.04150391 C43.65614657 0.08661821 43.65614657 0.08661821 45.93701172 1.22705078 C45.9603422 15.1608435 45.97792521 29.09463321 45.98882389 43.02844143 C45.9940534 49.49772759 46.00115228 55.96700067 46.01245117 62.4362793 C46.02327764 68.67375378 46.02928804 74.91121565 46.03188896 81.14869881 C46.03374365 83.53425355 46.03736508 85.91980757 46.04274178 88.30535698 C46.04994901 91.63400669 46.05100279 94.96260357 46.05053711 98.29125977 C46.05413239 99.28819351 46.05772766 100.28512726 46.06143188 101.31227112 C46.06005722 102.21396027 46.05868256 103.11564941 46.05726624 104.04466248 C46.05818803 104.83279548 46.05910982 105.62092848 46.06005955 106.4329443 C45.93701172 108.22705078 45.93701172 108.22705078 44.93701172 109.22705078 C43.43831124 109.32536224 41.93502633 109.35503534 40.43310547 109.35644531 C38.99656616 109.36117355 38.99656616 109.36117355 37.53100586 109.36599731 C36.48936279 109.36397308 35.44771973 109.36194885 34.37451172 109.35986328 C33.31288818 109.36082001 32.25126465 109.36177673 31.1574707 109.36276245 C28.907877 109.36344442 26.65828135 109.36158897 24.40869141 109.35742188 C20.951941 109.35207388 17.49532055 109.35736632 14.03857422 109.36376953 C11.85888643 109.36310875 9.67919872 109.3618276 7.49951172 109.35986328 C6.45786865 109.36188751 5.41622559 109.36391174 4.34301758 109.36599731 C3.38532471 109.36284515 2.42763184 109.35969299 1.44091797 109.35644531 C0.59343994 109.35564972 -0.25403809 109.35485413 -1.12719727 109.35403442 C-3.06298828 109.22705078 -3.06298828 109.22705078 -4.06298828 108.22705078 C-4.16268712 106.85295302 -4.19373403 105.47379128 -4.19670105 104.09608459 C-4.20096603 103.20569992 -4.20523102 102.31531525 -4.20962524 101.39794922 C-4.20917206 100.4135083 -4.20871887 99.42906738 -4.20825195 98.41479492 C-4.21161057 97.383983 -4.21496918 96.35317108 -4.21842957 95.29112244 C-4.22797159 91.86480523 -4.22988429 88.43853672 -4.23095703 85.01220703 C-4.23416729 82.6418811 -4.23753118 80.27155537 -4.24104309 77.90122986 C-4.24704247 72.92527812 -4.24888216 67.94934377 -4.24829102 62.97338867 C-4.24818933 56.58273095 -4.26184431 50.19218418 -4.27906322 43.80155277 C-4.29015629 38.90408308 -4.29221106 34.00664044 -4.29168129 29.10915947 C-4.29286538 26.75234024 -4.29731095 24.3955204 -4.30501366 22.03871346 C-4.31475957 18.74862925 -4.31195695 15.45878891 -4.3059082 12.16870117 C-4.31152771 11.18628448 -4.31714722 10.2038678 -4.32293701 9.19168091 C-4.31874252 8.29847641 -4.31454803 7.40527191 -4.31022644 6.48500061 C-4.31077121 5.70646256 -4.31131598 4.92792452 -4.31187725 4.12579441 C-3.93619354 1.25974912 -2.83997984 0.31256583 0 0 Z " fill="#2C345B" transform="translate(197.06298828125,57.77294921875)"/>
<path d="M0 0 C0.66 0 1.32 0 2 0 C2.02689449 2.95839355 2.04678741 5.91654427 2.0625 8.875 C2.07087891 9.71675781 2.07925781 10.55851562 2.08789062 11.42578125 C2.09111328 12.23144531 2.09433594 13.03710938 2.09765625 13.8671875 C2.10289307 14.61081543 2.10812988 15.35444336 2.11352539 16.12060547 C2 18 2 18 1 20 C16.51 19.67 32.02 19.34 48 19 C52 28 52 28 51.75 31.0625 C51.5025 31.701875 51.255 32.34125 51 33 C51.66 33 52.32 33 53 33 C52.67 35.31 52.34 37.62 52 40 C51.34 39.01 50.68 38.02 50 37 C49.67 66.37 49.34 95.74 49 126 C48.67 126 48.34 126 48 126 C47.98786972 124.34415642 47.98786972 124.34415642 47.97549438 122.65486145 C47.89801185 112.25200189 47.8102671 101.84927278 47.71247292 91.44658375 C47.66252576 86.09844876 47.61619544 80.75033337 47.578125 75.40209961 C47.54125242 70.24082622 47.49488685 65.07971744 47.44193649 59.91858482 C47.42340308 57.94944839 47.40829123 55.98027669 47.39665604 54.01108742 C47.37977572 51.25306973 47.35073611 48.49542816 47.31884766 45.73754883 C47.31668747 44.92330948 47.31452728 44.10907013 47.31230164 43.27015686 C47.2498202 39.04035804 46.75732975 35.83966837 45 32 C45 31.01 45 30.02 45 29 C40.65836985 28.9752364 36.3167774 28.95710985 31.97509766 28.94506836 C30.49885339 28.94004712 29.02261408 28.93322884 27.54638672 28.92456055 C25.42153702 28.91239811 23.29675322 28.90674954 21.171875 28.90234375 C19.8940918 28.89710693 18.61630859 28.89187012 17.29980469 28.88647461 C14.60199071 28.97928931 12.56128516 29.28615904 10 30 C7.66699067 30.03888349 5.33290199 30.0448635 3 30 C2.67 30.99 2.34 31.98 2 33 C1.34 32.67 0.68 32.34 0 32 C0 65.33 0 98.66 0 133 C3.3021228 134.1007076 5.94083279 134.20627072 9.41796875 134.31640625 C10.67158203 134.35830078 11.92519531 134.40019531 13.21679688 134.44335938 C14.52712891 134.48267578 15.83746094 134.52199219 17.1875 134.5625 C18.52279978 134.60570992 19.85808652 134.649325 21.19335938 134.69335938 C24.46213297 134.79956502 27.73098333 134.90160997 31 135 C31 135.33 31 135.66 31 136 C26.60343827 136.02465504 22.2069128 136.04283842 17.81030273 136.05493164 C16.31355082 136.05997121 14.81680384 136.06680287 13.32006836 136.07543945 C11.17300193 136.08752159 9.02600038 136.09323191 6.87890625 136.09765625 C5.5854126 136.10289307 4.29191895 136.10812988 2.95922852 136.11352539 C0 136 0 136 -1 135 C-1.09543095 133.60856311 -1.12188575 132.21231633 -1.12025452 130.81761169 C-1.12162918 129.91592255 -1.12300385 129.0142334 -1.12442017 128.08522034 C-1.12082489 127.08828659 -1.11722961 126.09135284 -1.11352539 125.06420898 C-1.11367142 124.02043091 -1.11381744 122.97665283 -1.1139679 121.90124512 C-1.11326826 118.43284057 -1.10547353 114.96448897 -1.09765625 111.49609375 C-1.09579225 109.09855682 -1.09436826 106.7010195 -1.09336853 104.30348206 C-1.08954194 97.97904416 -1.07971046 91.65462906 -1.06866455 85.3302002 C-1.05845345 78.88224598 -1.05387156 72.43428809 -1.04882812 65.98632812 C-1.03808832 53.324209 -1.02120119 40.66210571 -1 28 C1.37390836 26.81304582 2.80244951 26.87924167 5.44970703 26.88647461 C6.83091232 26.88658791 6.83091232 26.88658791 8.24002075 26.88670349 C9.73382767 26.89444542 9.73382767 26.89444542 11.2578125 26.90234375 C12.78509476 26.90446617 12.78509476 26.90446617 14.3432312 26.90663147 C17.60385035 26.912241 20.86440151 26.92479512 24.125 26.9375 C26.33203026 26.94251377 28.53906159 26.94707689 30.74609375 26.95117188 C36.16408581 26.96221352 41.58203805 26.97896095 47 27 C47 25.35 47 23.7 47 22 C46.41340103 22.00222061 45.82680206 22.00444122 45.22242737 22.00672913 C39.13974616 22.0287821 33.05707623 22.04390664 26.97436523 22.05493164 C24.70157409 22.05997325 22.4287862 22.06680637 20.15600586 22.07543945 C16.89696449 22.08751261 13.63796583 22.09322987 10.37890625 22.09765625 C9.35599991 22.10281754 8.33309357 22.10797882 7.27919006 22.11329651 C6.33829025 22.11337204 5.39739044 22.11344757 4.42797852 22.11352539 C3.59524918 22.115746 2.76251984 22.11796661 1.90455627 22.12025452 C0 22 0 22 -1 21 C-1.09880797 19.52347336 -1.13079245 18.04232764 -1.1328125 16.5625 C-1.13410156 15.66789062 -1.13539062 14.77328125 -1.13671875 13.8515625 C-1.13091797 12.44003906 -1.13091797 12.44003906 -1.125 11 C-1.12886719 10.05898438 -1.13273438 9.11796875 -1.13671875 8.1484375 C-1.13542969 7.25382812 -1.13414063 6.35921875 -1.1328125 5.4375 C-1.13112061 4.19806641 -1.13112061 4.19806641 -1.12939453 2.93359375 C-1 1 -1 1 0 0 Z " fill="#2B3156" transform="translate(5,31)"/>
<path d="M0 0 C1.24123878 0.00213753 1.24123878 0.00213753 2.5075531 0.00431824 C3.44514969 0.00124161 4.38274628 -0.00183502 5.34875488 -0.00500488 C6.36336288 0.00218063 7.37797089 0.00936615 8.42332458 0.01676941 C9.9803434 0.01745674 9.9803434 0.01745674 11.56881714 0.01815796 C13.76536704 0.02118233 15.96191476 0.02907411 18.15843201 0.04142761 C21.53391556 0.05968136 24.90912497 0.06193737 28.28465271 0.06169128 C30.41421239 0.06660638 32.5437702 0.07243467 34.67332458 0.07926941 C35.68995682 0.08038223 36.70658905 0.08149506 37.75402832 0.0826416 C38.68847275 0.08902145 39.62291718 0.09540131 40.5856781 0.10197449 C41.41237503 0.10578629 42.23907196 0.10959808 43.09082031 0.11352539 C44.98191833 0.24723816 44.98191833 0.24723816 45.98191833 1.24723816 C46.07977175 2.59268143 46.10989819 3.94316379 46.11131287 5.29216003 C46.11446503 6.14974915 46.11761719 7.00733826 46.12086487 7.89091492 C46.11884064 8.82318909 46.11681641 9.75546326 46.11473083 10.71598816 C46.11568756 11.66663147 46.11664429 12.61727478 46.11763 13.59672546 C46.1183119 15.61092698 46.11645695 17.62513068 46.11228943 19.639328 C46.10694131 22.7339417 46.11223411 25.82841026 46.11863708 28.92301941 C46.11797631 30.87484265 46.11669515 32.8266658 46.11473083 34.77848816 C46.11675507 35.71076233 46.1187793 36.6430365 46.12086487 37.6035614 C46.11613663 38.88994507 46.11613663 38.88994507 46.11131287 40.20231628 C46.11051727 40.96096985 46.10972168 41.71962341 46.10890198 42.50126648 C45.98191833 44.24723816 45.98191833 44.24723816 44.98191833 45.24723816 C43.48321785 45.34554962 41.97993295 45.37522272 40.47801208 45.37663269 C39.04147278 45.38136093 39.04147278 45.38136093 37.57591248 45.38618469 C36.53426941 45.38416046 35.49262634 45.38213623 34.41941833 45.38005066 C33.3577948 45.38100739 32.29617126 45.38196411 31.20237732 45.38294983 C28.95278362 45.3836318 26.70318797 45.38177635 24.45359802 45.37760925 C20.99684762 45.37226126 17.54022716 45.3775537 14.08348083 45.38395691 C11.90379305 45.38329613 9.72410534 45.38201497 7.54441833 45.38005066 C6.50277527 45.38207489 5.4611322 45.38409912 4.38792419 45.38618469 C3.43023132 45.38303253 2.47253845 45.37988037 1.48582458 45.37663269 C0.63834656 45.3758371 -0.20913147 45.3750415 -1.08229065 45.3742218 C-3.01808167 45.24723816 -3.01808167 45.24723816 -4.01808167 44.24723816 C-4.13168459 41.16812157 -4.18227271 38.1122835 -4.18605042 35.03239441 C-4.18937881 34.10631882 -4.19270721 33.18024323 -4.19613647 32.22610474 C-4.20120974 30.26318358 -4.20354468 28.30025376 -4.2033844 26.33732605 C-4.20556984 23.32603305 -4.22371841 20.31510682 -4.24269104 17.30387878 C-4.24562502 15.40088525 -4.24760979 13.49788997 -4.24855042 11.59489441 C-4.25573593 10.6896553 -4.26292145 9.7844162 -4.27032471 8.85174561 C-4.26724808 8.01425278 -4.26417145 7.17675995 -4.26100159 6.31388855 C-4.26242661 5.57522049 -4.26385162 4.83655243 -4.26531982 4.07550049 C-3.8868663 1.27693439 -2.75977432 0.33810402 0 0 Z M25.79832458 2.33317566 C25.05735031 2.35441498 24.31637604 2.3756543 23.552948 2.39753723 C22.00419626 2.44340542 20.45553123 2.49229464 18.90696716 2.54411316 C16.52652901 2.62282973 14.14595689 2.68957463 11.76512146 2.75505066 C10.25533413 2.8012214 8.74556739 2.84807139 7.23582458 2.89567566 C6.52237381 2.91552521 5.80892303 2.93537476 5.07385254 2.95582581 C1.74117826 2.79594458 1.74117826 2.79594458 -1.01808167 4.24723816 C-1.10672678 7.13134991 -1.13336692 9.99206625 -1.11573792 12.87614441 C-1.11473083 13.64180725 -1.11372375 14.40747009 -1.11268616 15.19633484 C-1.10743829 18.06748443 -1.09347714 20.93861273 -1.08058167 23.80973816 C-1.05995667 30.22411316 -1.03933167 36.63848816 -1.01808167 43.24723816 C14.16191833 43.57723816 29.34191833 43.90723816 44.98191833 44.24723816 C44.98191833 43.58723816 44.98191833 42.92723816 44.98191833 42.24723816 C44.32191833 42.24723816 43.66191833 42.24723816 42.98191833 42.24723816 C43.47691833 41.25723816 43.47691833 41.25723816 43.98191833 40.24723816 C44.21142153 38.04287416 44.39267767 35.83331643 44.54441833 33.62223816 C44.6282074 32.43372253 44.71199646 31.24520691 44.79832458 30.02067566 C44.88920349 28.6478241 44.88920349 28.6478241 44.98191833 27.24723816 C44.65191833 27.24723816 44.32191833 27.24723816 43.98191833 27.24723816 C43.99239197 26.59126648 44.0028656 25.9352948 44.01365662 25.25944519 C44.05514336 22.29708158 44.08122095 19.334779 44.10691833 16.37223816 C44.12367615 15.3396991 44.14043396 14.30716003 44.15769958 13.24333191 C44.1641449 12.2571991 44.17059021 11.27106628 44.17723083 10.25505066 C44.18770447 9.3438446 44.1981781 8.43263855 44.20896912 7.49382019 C44.20062826 5.0443338 44.20062826 5.0443338 41.98191833 3.24723816 C36.53297726 2.29668307 31.31158182 2.14475949 25.79832458 2.33317566 Z " fill="#2C355D" transform="translate(197.01808166503906,7.7527618408203125)"/>
<path d="M0 0 C0.86018234 -0.0065712 1.72036469 -0.0131424 2.60661316 -0.01991272 C5.46658403 -0.03969841 8.32650224 -0.05132085 11.18652344 -0.0612793 C12.64863377 -0.06739259 12.64863377 -0.06739259 14.14028168 -0.07362938 C19.300713 -0.09451402 24.46111754 -0.10880454 29.62158203 -0.11816406 C34.95610192 -0.129225 40.29020426 -0.16361449 45.62457657 -0.20333576 C49.72180971 -0.22946872 53.81894298 -0.23785302 57.91625214 -0.24144554 C59.88265549 -0.24632121 61.8490541 -0.25796299 63.81537628 -0.27648354 C66.56866068 -0.3008012 69.3208601 -0.29992333 72.07421875 -0.29296875 C73.29322121 -0.31218384 73.29322121 -0.31218384 74.53684998 -0.33178711 C79.57243225 -0.28543059 82.10646827 0.44788524 85.79589844 4.17700195 C86.93922493 5.38815697 88.04947851 6.63160835 89.12011719 7.9074707 C93.45366588 12.97364859 98.03811448 17.78511623 102.62988281 22.61645508 C103.58797852 23.630625 103.58797852 23.630625 104.56542969 24.6652832 C105.42551636 25.57080933 105.42551636 25.57080933 106.30297852 26.49462891 C107.79589844 28.17700195 107.79589844 28.17700195 109.79589844 31.17700195 C106.18424021 31.17700195 105.42482654 30.55946805 102.79589844 28.17700195 C101.77723615 26.52167573 100.77779031 24.85440057 99.79589844 23.17700195 C98.71308594 22.09418945 98.71308594 22.09418945 97.60839844 20.98950195 C97.01027344 20.39137695 96.41214844 19.79325195 95.79589844 19.17700195 C95.79589844 18.51700195 95.79589844 17.85700195 95.79589844 17.17700195 C94.80589844 17.17700195 93.81589844 17.17700195 92.79589844 17.17700195 C91.29589844 15.42700195 91.29589844 15.42700195 89.79589844 13.17700195 C87.52927212 9.78323248 87.52927212 9.78323248 83.79589844 8.17700195 C82.80589844 6.69200195 82.80589844 6.69200195 81.79589844 5.17700195 C78.08923916 3.94144886 74.63797216 4.00849358 70.77612305 3.98754883 C69.55133492 3.97510887 69.55133492 3.97510887 68.30180359 3.9624176 C66.52901583 3.94502245 64.75620514 3.92985416 62.98338127 3.91664124 C60.18071859 3.89562052 57.37817136 3.8685984 54.57557678 3.83996582 C47.61629974 3.77011789 40.65694058 3.71068483 33.6975708 3.65093994 C27.81570597 3.60005937 21.93390369 3.54525386 16.05212593 3.48512268 C13.28565946 3.45849181 10.51918732 3.43771312 7.75267029 3.41711426 C6.06387043 3.40051616 4.37507323 3.38364475 2.6862793 3.36645508 C1.91272095 3.36227066 1.1391626 3.35808624 0.34216309 3.35377502 C-4.97640958 3.29084794 -4.97640958 3.29084794 -7.20410156 2.17700195 C-7.19362793 3.3479541 -7.1831543 4.51890625 -7.17236328 5.7253418 C-7.1362266 10.060109 -7.11322424 14.39486284 -7.09423828 18.72973633 C-7.08416622 20.60768877 -7.07050795 22.48562549 -7.05322266 24.36352539 C-7.02902703 27.05920286 -7.01763073 29.75467341 -7.00878906 32.45043945 C-6.99846649 33.29319427 -6.98814392 34.1359491 -6.97750854 35.00424194 C-6.97711012 37.06321442 -7.08152569 39.1216813 -7.20410156 41.17700195 C-7.86410156 41.83700195 -8.52410156 42.49700195 -9.20410156 43.17700195 C-9.2287473 37.21387029 -9.24693556 31.25076801 -9.2590332 25.28759766 C-9.26407434 23.25731897 -9.27090713 21.22704393 -9.27954102 19.19677734 C-9.29161624 16.28522849 -9.29733191 13.37372745 -9.30175781 10.4621582 C-9.3069191 9.54862076 -9.31208038 8.63508331 -9.31739807 7.69386292 C-9.31759324 5.52124768 -9.26621961 3.34872899 -9.20410156 1.17700195 C-7.15326471 -0.8738349 -2.82115817 0.00924238 0 0 Z " fill="#303861" transform="translate(264.2041015625,7.822998046875)"/>
<path d="M0 0 C23.76 0 47.52 0 72 0 C73.61301773 3.22603545 73.12053599 6.74710038 73.09765625 10.2890625 C73.0962413 11.10748627 73.09482635 11.92591003 73.09336853 12.76913452 C73.0877629 15.38779325 73.07520948 18.00636704 73.0625 20.625 C73.05748572 22.39843627 73.05292269 24.17187387 73.04882812 25.9453125 C73.03779164 30.29690782 73.02052325 34.6484395 73 39 C72.34 39 71.68 39 71 39 C70.505 39.99 70.505 39.99 70 41 C68.38243934 37.76487867 69.00112826 34.25344781 69.12109375 30.7109375 C69.14175903 29.98559814 69.16242432 29.26025879 69.18371582 28.51293945 C69.26255547 25.80011961 69.35058345 23.08757308 69.4375 20.375 C69.7159375 11.279375 69.7159375 11.279375 70 2 C46.57 2 23.14 2 -1 2 C-0.67 1.34 -0.34 0.68 0 0 Z " fill="#393F65" transform="translate(446,124)"/>
<path d="M0 0 C2.64 0.33 5.28 0.66 8 1 C5.39222197 3.88718282 3.83721304 5.37240778 0 6 C-2.41437454 6.08823984 -4.83108732 6.11763421 -7.24707031 6.11352539 C-8.3305928 6.11374443 -8.3305928 6.11374443 -9.43600464 6.1139679 C-11.81674228 6.11327284 -14.19740108 6.1054995 -16.578125 6.09765625 C-18.23150591 6.09579063 -19.88488738 6.0943674 -21.53826904 6.09336853 C-25.88494397 6.08955473 -30.23158537 6.07973415 -34.57824707 6.06866455 C-39.01570177 6.05842599 -43.45316189 6.05386567 -47.890625 6.04882812 C-56.59376537 6.03811086 -65.29687851 6.02104809 -74 6 C-74 5.34 -74 4.68 -74 4 C-74.66 3.67 -75.32 3.34 -76 3 C-50.92 3 -25.84 3 0 3 C0 2.01 0 1.02 0 0 Z " fill="#353F68" transform="translate(362,162)"/>
<path d="M0 0 C0.33 0 0.66 0 1 0 C1.81289132 5.63330025 2.11780571 11.02579073 2.02172852 16.7109375 C2.01212097 17.54115921 2.00251343 18.37138092 1.99261475 19.22676086 C1.95990376 21.94293462 1.91946728 24.65893312 1.87890625 27.375 C1.85457778 29.26928102 1.83073563 31.16356834 1.80735779 33.05786133 C1.74478802 38.02267687 1.67564581 42.9873796 1.60510254 47.9520874 C1.53417297 53.02660014 1.46950379 58.10119232 1.40429688 63.17578125 C1.27563438 73.11727482 1.14002358 83.05866041 1 93 C3.79389702 93.78900382 6.28607891 94.12976978 9.18603516 94.14526367 C10.40717514 94.15483345 10.40717514 94.15483345 11.65298462 94.16459656 C12.95784317 94.16626579 12.95784317 94.16626579 14.2890625 94.16796875 C15.1886972 94.17129715 16.08833191 94.17462555 17.01522827 94.17805481 C18.91314178 94.18310984 20.81106414 94.18546358 22.70898438 94.18530273 C25.62124064 94.18749717 28.53312283 94.20568948 31.4453125 94.22460938 C33.2890612 94.22754193 35.13281171 94.22952765 36.9765625 94.23046875 C38.28749374 94.24124702 38.28749374 94.24124702 39.62490845 94.25224304 C44.29395403 94.46081735 44.29395403 94.46081735 48 92 C48.12821903 89.1791814 48.13138253 86.44353321 48.0625 83.625 C47.92272788 72.96834616 48.18352519 62.33818009 48.5 51.6875 C48.52409943 50.86348694 48.54819885 50.03947388 48.57302856 49.19049072 C48.71145502 44.46020366 48.8538739 39.73005526 49 35 C49.33 35 49.66 35 50 35 C50.02312792 42.80575195 50.04091738 50.61149595 50.05181217 58.41727352 C50.05704002 62.0414596 50.06413587 65.6656223 50.07543945 69.28979492 C50.08627184 72.78459975 50.09227758 76.27938204 50.09487724 79.77420235 C50.09763551 81.76239389 50.10544688 83.75057631 50.11329651 85.73875427 C50.11337204 86.93992386 50.11344757 88.14109344 50.11352539 89.37866211 C50.115746 90.44233505 50.11796661 91.506008 50.12025452 92.60191345 C50 95 50 95 49 96 C47.4651703 96.09319449 45.92607918 96.117458 44.38842773 96.11352539 C43.3937146 96.11340454 42.39900146 96.11328369 41.37414551 96.11315918 C40.32126343 96.10804321 39.26838135 96.10292725 38.18359375 96.09765625 C37.22134888 96.09664917 36.259104 96.09564209 35.2677002 96.09460449 C31.65762142 96.0893546 28.04755957 96.07539348 24.4375 96.0625 C16.373125 96.041875 8.30875 96.02125 0 96 C0 64.32 0 32.64 0 0 Z " fill="#292E53" transform="translate(138,71)"/>
<path d="M0 0 C5.875 4.75 5.875 4.75 7 7 C7.11921719 9.67706775 7.17835419 12.32891759 7.19287109 15.00708008 C7.20104858 15.83505096 7.20922607 16.66302185 7.21765137 17.51608276 C7.24253765 20.26722493 7.25903869 23.018315 7.2734375 25.76953125 C7.27876118 26.71130407 7.28408485 27.6530769 7.28956985 28.62338829 C7.31632837 33.61797649 7.3356858 38.61253959 7.35009766 43.60717773 C7.36338278 47.72459396 7.39113042 51.84150822 7.43212891 55.95874023 C7.48173702 60.94077809 7.50625458 65.92236403 7.51332474 70.90463829 C7.51999636 72.79467382 7.53511031 74.68470091 7.55921555 76.5745945 C7.74475571 92.01507731 5.53460714 103.31995545 -4 116 C-4.66 115.67 -5.32 115.34 -6 115 C-6 114.01 -6 113.02 -6 112 C-5.38125 111.938125 -4.7625 111.87625 -4.125 111.8125 C-1.82533146 111.20005103 -1.82533146 111.20005103 -0.9375 109 C-0.628125 108.01 -0.31875 107.02 0 106 C0.25910156 105.26523438 0.51820313 104.53046875 0.78515625 103.7734375 C2.48974082 99.00244953 2.48974082 99.00244953 3 94 C3.66 94 4.32 94 5 94 C5.06940502 82.95195823 5.12276284 71.90396803 5.15543652 60.85575294 C5.17111552 55.72602279 5.19239443 50.5964414 5.22631836 45.46679688 C5.25883229 40.51959133 5.27683616 35.57252918 5.28463173 30.62522507 C5.2901896 28.73449825 5.30104227 26.84377958 5.31719017 24.95311356 C5.33885879 22.31182939 5.3419714 19.6711434 5.34057617 17.02978516 C5.351362 16.24216293 5.36214783 15.45454071 5.3732605 14.64305115 C5.39495052 12.24708293 5.39495052 12.24708293 5 9 C4.01 8.34 3.02 7.68 2 7 C0.8125 3.375 0.8125 3.375 0 0 Z " fill="#313858" transform="translate(378,44)"/>
<path d="M0 0 C0.99 0.33 1.98 0.66 3 1 C2.34 1.66 1.68 2.32 1 3 C0.82511746 5.43744897 0.76822595 7.7593608 0.8046875 10.1953125 C0.8075174 10.90275604 0.81034729 11.61019958 0.81326294 12.33908081 C0.82446863 14.6012251 0.84957321 16.86297515 0.875 19.125 C0.88502933 20.65754637 0.89415526 22.19009894 0.90234375 23.72265625 C0.92440914 27.48192301 0.95894104 31.24089464 1 35 C1.33 35 1.66 35 2 35 C2 36.98 2 38.96 2 41 C24.68271011 41.18597076 47.32843277 40.64481916 70 40 C70.33 39.01 70.66 38.02 71 37 C71.66 37.99 72.32 38.98 73 40 C73.99 39.67 74.98 39.34 76 39 C75.67 40.32 75.34 41.64 75 43 C49.92 43 24.84 43 -1 43 C-1.020625 36.090625 -1.04125 29.18125 -1.0625 22.0625 C-1.071604 19.87890869 -1.08070801 17.69531738 -1.09008789 15.44555664 C-1.09300698 13.7254238 -1.09555555 12.00529028 -1.09765625 10.28515625 C-1.10277222 9.38341675 -1.10788818 8.48167725 -1.11315918 7.5526123 C-1.11346882 5.36808255 -1.0624587 3.1836367 -1 1 C-0.67 0.67 -0.34 0.34 0 0 Z " fill="#2A365F" transform="translate(443,124)"/>
<path d="M0 0 C0.66 0 1.32 0 2 0 C1.99555878 1.09136765 1.99111755 2.18273529 1.98654175 3.30717468 C1.94599867 13.59218954 1.91601702 23.87718819 1.89637566 34.16226482 C1.8859384 39.44992592 1.87178015 44.73752251 1.84912109 50.02514648 C1.8273908 55.12796984 1.81543094 60.23073113 1.81024551 65.33359718 C1.80655011 67.28044423 1.79933395 69.22728788 1.78853989 71.17410851 C1.77402259 73.90089636 1.77202217 76.62742776 1.77294922 79.35424805 C1.76216339 80.56158096 1.76216339 80.56158096 1.75115967 81.79330444 C1.76669589 86.01633956 2.22512712 89.17486151 4 93 C4.103125 94.093125 4.20625 95.18625 4.3125 96.3125 C5.3317845 101.77957142 8.08077723 106.08077723 12 110 C9 110 9 110 7.0625 108.125 C1.45966716 99.63585933 -0.15705294 91.1417543 -0.11352539 81.1706543 C-0.11367142 80.29210281 -0.11381744 79.41355133 -0.1139679 78.50837708 C-0.11327299 75.61363224 -0.10550036 72.7189523 -0.09765625 69.82421875 C-0.09579057 67.81354304 -0.09436737 65.80286688 -0.09336853 63.79219055 C-0.08955517 58.50681294 -0.07973495 53.22146292 -0.06866455 47.93609619 C-0.05842505 42.54008355 -0.05386547 37.14406644 -0.04882812 31.74804688 C-0.03811163 21.16535248 -0.02104937 10.58267854 0 0 Z " fill="#31345C" transform="translate(396,47)"/>
<path d="M0 0 C0.33 0 0.66 0 1 0 C1 29.7 1 59.4 1 90 C0.67 90 0.34 90 0 90 C-0.72481625 84.75747194 -1.1410297 79.67963448 -1.20532227 74.37817383 C-1.21522186 73.66327286 -1.22512146 72.94837189 -1.23532104 72.21180725 C-1.26659949 69.87691412 -1.29156937 67.54200101 -1.31640625 65.20703125 C-1.33701556 63.57134016 -1.35801296 61.93565391 -1.37937927 60.29997253 C-1.43430556 56.01286886 -1.48382113 51.72571918 -1.53222656 47.4385376 C-1.58250923 43.07682069 -1.63824788 38.71517369 -1.69335938 34.35351562 C-1.77295416 27.98025563 -1.85090128 21.60697982 -1.92407227 15.23364258 C-1.93882095 13.95427322 -1.95356964 12.67490387 -1.96876526 11.35676575 C-1.99468812 8.5708619 -2.00645582 5.7859853 -2 3 C-1.34 3 -0.68 3 0 3 C0 2.01 0 1.02 0 0 Z " fill="#21294F" transform="translate(434,38)"/>
<path d="M0 0 C0.66 0 1.32 0 2 0 C2.02689449 2.95839355 2.04678741 5.91654427 2.0625 8.875 C2.07087891 9.71675781 2.07925781 10.55851562 2.08789062 11.42578125 C2.09111328 12.23144531 2.09433594 13.03710938 2.09765625 13.8671875 C2.10289307 14.61081543 2.10812988 15.35444336 2.11352539 16.12060547 C2 18 2 18 1 20 C16.51 19.67 32.02 19.34 48 19 C51 27 51 27 51 30 C49.68 29.34 48.36 28.68 47 28 C47 26.02 47 24.04 47 22 C46.41340103 22.00222061 45.82680206 22.00444122 45.22242737 22.00672913 C39.13974616 22.0287821 33.05707623 22.04390664 26.97436523 22.05493164 C24.70157409 22.05997325 22.4287862 22.06680637 20.15600586 22.07543945 C16.89696449 22.08751261 13.63796583 22.09322987 10.37890625 22.09765625 C9.35599991 22.10281754 8.33309357 22.10797882 7.27919006 22.11329651 C6.33829025 22.11337204 5.39739044 22.11344757 4.42797852 22.11352539 C3.59524918 22.115746 2.76251984 22.11796661 1.90455627 22.12025452 C0 22 0 22 -1 21 C-1.09880797 19.52347336 -1.13079245 18.04232764 -1.1328125 16.5625 C-1.13410156 15.66789062 -1.13539062 14.77328125 -1.13671875 13.8515625 C-1.13091797 12.44003906 -1.13091797 12.44003906 -1.125 11 C-1.12886719 10.05898438 -1.13273438 9.11796875 -1.13671875 8.1484375 C-1.13542969 7.25382812 -1.13414063 6.35921875 -1.1328125 5.4375 C-1.13112061 4.19806641 -1.13112061 4.19806641 -1.12939453 2.93359375 C-1 1 -1 1 0 0 Z " fill="#323657" transform="translate(5,31)"/>
<path d="M0 0 C0.71055038 -0.00175232 1.42110077 -0.00350464 2.15318298 -0.00531006 C4.51295378 -0.00972824 6.87265025 -0.00679072 9.23242188 -0.00341797 C10.86527521 -0.00409102 12.49812845 -0.00506105 14.13098145 -0.00631714 C17.55754549 -0.00779407 20.98408351 -0.00563973 24.41064453 -0.00097656 C28.81271689 0.00472073 33.21472828 0.00144169 37.6167984 -0.00454903 C40.98985253 -0.00815478 44.3628921 -0.00701599 47.73594666 -0.00442123 C49.35953275 -0.003752 50.98312014 -0.00458025 52.60670471 -0.00690079 C54.87195358 -0.00942755 57.13710238 -0.00558641 59.40234375 0 C61.33974426 0.00119339 61.33974426 0.00119339 63.31628418 0.00241089 C66.20117188 0.12939453 66.20117188 0.12939453 67.20117188 1.12939453 C69.67178498 20.15782137 69.67178498 20.15782137 65.19335938 26.81298828 C62.9858516 29.19695828 60.83722894 31.23603609 58.20117188 33.12939453 C57.87117188 32.13939453 57.54117188 31.14939453 57.20117188 30.12939453 C58.92159687 27.73308828 60.73435243 25.59173609 62.83007812 23.51611328 C64.91164026 19.89265326 64.52115202 16.47608824 64.38867188 12.37939453 C64.37513672 11.58662109 64.36160156 10.79384766 64.34765625 9.97705078 C64.31242411 8.02753889 64.25862009 6.07837827 64.20117188 4.12939453 C63.21117187 3.63439453 63.21117187 3.63439453 62.20117188 3.12939453 C62.86117187 2.79939453 63.52117187 2.46939453 64.20117188 2.12939453 C41.10117187 1.79939453 18.00117188 1.46939453 -5.79882812 1.12939453 C-6.12882812 2.44939453 -6.45882813 3.76939453 -6.79882812 5.12939453 C-7.36132812 3.19189453 -7.36132812 3.19189453 -7.79882812 1.12939453 C-5.89712108 -0.77231251 -2.52035099 0.00155247 0 0 Z " fill="#2A2F52" transform="translate(449.798828125,7.87060546875)"/>
<path d="M0 0 C1.2946669 -0.00622879 2.5893338 -0.01245758 3.92323303 -0.01887512 C5.33741643 -0.01018797 6.75159608 -0.00087008 8.16577148 0.0090332 C9.61400858 0.00955181 11.06224639 0.00903409 12.51048279 0.00752258 C15.54436767 0.00761228 18.57798668 0.01803729 21.61181641 0.03613281 C25.50488959 0.05884037 29.39757494 0.05936025 33.29069614 0.05261517 C36.28036459 0.04927771 39.26994425 0.05590067 42.25959587 0.0657444 C43.69534783 0.06959904 45.13110966 0.07074352 46.56686592 0.06915855 C48.57064143 0.06878868 50.57440403 0.08286781 52.578125 0.09765625 C54.28996727 0.10456734 54.28996727 0.10456734 56.03639221 0.11161804 C58.72436523 0.37231445 58.72436523 0.37231445 60.72436523 2.37231445 C61.17130102 5.47663111 61.04845113 8.61448878 61.03686523 11.74731445 C61.05297852 12.61098633 61.0690918 13.4746582 61.08569336 14.36450195 C61.09057348 20.68913605 61.09057348 20.68913605 59.32983398 23.97387695 C57.72436523 25.37231445 57.72436523 25.37231445 55.72436523 25.37231445 C56.47436523 20.62231445 56.47436523 20.62231445 58.72436523 18.37231445 C58.96814407 15.01487333 58.96814407 15.01487333 58.84936523 11.24731445 C58.83131836 9.96598633 58.81327148 8.6846582 58.79467773 7.36450195 C58.77147461 6.37708008 58.74827148 5.3896582 58.72436523 4.37231445 C57.07436523 4.37231445 55.42436523 4.37231445 53.72436523 4.37231445 C54.71436523 3.71231445 55.70436523 3.05231445 56.72436523 2.37231445 C48.82276883 2.34915247 40.92118658 2.33137967 33.01956463 2.32050228 C29.350596 2.31528191 25.68165058 2.30819957 22.01269531 2.296875 C18.47249434 2.28601613 14.93231572 2.28003124 11.39209938 2.27743721 C9.38294869 2.27468812 7.37380699 2.26688085 5.3646698 2.25901794 C4.14363052 2.25894241 2.92259125 2.25886688 1.66455078 2.25878906 C0.58755417 2.25656845 -0.48944244 2.25434784 -1.59907532 2.25205994 C-4.37852177 2.25476075 -4.37852177 2.25476075 -7.27563477 3.37231445 C-8.26563477 8.32231445 -9.25563477 13.27231445 -10.27563477 18.37231445 C-10.93563477 18.37231445 -11.59563477 18.37231445 -12.27563477 18.37231445 C-11.85233074 15.93156148 -11.41274015 13.49573616 -10.96313477 11.05981445 C-10.84518555 10.36952148 -10.72723633 9.67922852 -10.60571289 8.96801758 C-9.22733954 1.65203596 -7.41013729 -0.00408409 0 0 Z " fill="#2D3258" transform="translate(127.275634765625,7.627685546875)"/>
<path d="M0 0 C0.99 0.33 1.98 0.66 3 1 C3.32501101 6.41685009 2.46688913 9.24895427 0 14 C-1.13963204 17.63118051 -2.0746299 21.30909525 -3 25 C-3.17402344 25.69351563 -3.34804687 26.38703125 -3.52734375 27.1015625 C-3.68332031 27.72804688 -3.83929688 28.35453125 -4 29 C-4.15597656 29.62132813 -4.31195313 30.24265625 -4.47265625 30.8828125 C-4.8859 32.54190965 -5.2870613 34.2040171 -5.68359375 35.8671875 C-5.93238281 36.85976562 -6.18117188 37.85234375 -6.4375 38.875 C-6.66308594 39.80054688 -6.88867188 40.72609375 -7.12109375 41.6796875 C-8 44 -8 44 -11 46 C-12.85735533 39.71356657 -14.43247063 33.36416924 -16 27 C-15.34 26.67 -14.68 26.34 -14 26 C-13.49363393 27.74816858 -12.99515381 29.49862263 -12.5 31.25 C-12.2215625 32.22453125 -11.943125 33.1990625 -11.65625 34.203125 C-11 37 -11 37 -11 41 C-10.34 41 -9.68 41 -9 41 C-8.87310791 39.845 -8.74621582 38.69 -8.61547852 37.5 C-8.08197641 33.24646683 -7.18934307 29.15549951 -6.15234375 25 C-5.88811363 23.91827515 -5.88811363 23.91827515 -5.61854553 22.81469727 C-5.062405 20.5420742 -4.50007083 18.27103883 -3.9375 16 C-3.55622758 14.44671591 -3.17536447 12.89333129 -2.79492188 11.33984375 C-1.86800331 7.55871856 -0.93553207 3.77900282 0 0 Z M-2 22 C-1.67 22.99 -1.34 23.98 -1 25 C-1.66 24.67 -2.32 24.34 -3 24 C-2.67 23.34 -2.34 22.68 -2 22 Z " fill="#293258" transform="translate(105,66)"/>
<path d="M0 0 C1.28100586 0.02126953 1.28100586 0.02126953 2.58789062 0.04296875 C6.12132151 0.12623892 8.93573436 0.24941145 12.3125 1.375 C12.32463028 2.55224136 12.32463028 2.55224136 12.33700562 3.75326538 C12.41486372 11.14029568 12.50212726 18.52712593 12.60002708 25.91391563 C12.65002784 29.71177881 12.69635725 33.50961366 12.734375 37.30761719 C12.77118049 40.97114954 12.81752693 44.634447 12.87056351 48.29777908 C12.88913279 49.69720983 12.90423136 51.09669098 12.91584396 52.49619675 C12.93266243 54.4524795 12.96283353 56.40863381 12.99365234 58.36474609 C13.00697601 59.4794931 13.02029968 60.59424011 13.0340271 61.74276733 C13.05015198 64.53184568 13.05015198 64.53184568 15.3125 66.375 C13.9925 66.045 12.6725 65.715 11.3125 65.375 C10.9825 45.245 10.6525 25.115 10.3125 4.375 C3.14650697 1.98633566 -5.31936245 3.24144038 -12.6875 4.375 C-12.6875 5.365 -12.6875 6.355 -12.6875 7.375 C-14.3375 8.035 -15.9875 8.695 -17.6875 9.375 C-14.49344059 0.7510396 -8.16103847 -0.36215779 0 0 Z " fill="#32365A" transform="translate(288.6875,57.625)"/>
<path d="M0 0 C0.33 0 0.66 0 1 0 C1.03758423 1.31605225 1.03758423 1.31605225 1.07592773 2.65869141 C1.17145384 5.93517191 1.27066243 9.21149898 1.37231445 12.48779297 C1.41544251 13.90181165 1.45713168 15.31587502 1.49731445 16.72998047 C1.5555575 18.7706444 1.61909141 20.81108795 1.68359375 22.8515625 C1.72025146 24.07697754 1.75690918 25.30239258 1.79467773 26.56494141 C1.98672113 29.77784342 2.4055394 32.83941587 3 36 C3.680625 35.79375 4.36125 35.5875 5.0625 35.375 C8.78833331 34.89936171 11.46992554 35.82330851 15 37 C15 37.33 15 37.66 15 38 C33.315 38.495 33.315 38.495 52 39 C52 39.33 52 39.66 52 40 C35.17 40 18.34 40 1 40 C-0.9453507 35.13662326 -1.1963394 31.90528472 -0.9765625 26.85546875 C-0.95153656 26.08568192 -0.92651062 25.31589508 -0.90072632 24.52278137 C-0.81890984 22.07721375 -0.72217465 19.63250072 -0.625 17.1875 C-0.56672109 15.52412284 -0.50941868 13.86071116 -0.453125 12.19726562 C-0.31338876 8.13102372 -0.16027533 4.06548204 0 0 Z " fill="#293358" transform="translate(442,14)"/>
<path d="M0 0 C3.22886009 -0.11667875 6.45717445 -0.18740546 9.6875 -0.25 C11.05551758 -0.30027344 11.05551758 -0.30027344 12.45117188 -0.3515625 C19.1968323 -0.4496812 19.1968323 -0.4496812 22.70703125 1.515625 C25.23004879 4.24925219 27.70833382 7.01046239 30.12646484 9.83740234 C33.88157541 14.17187842 37.88393466 18.28331386 41.83398438 22.43945312 C42.47271484 23.11556641 43.11144531 23.79167969 43.76953125 24.48828125 C44.34292236 25.09196533 44.91631348 25.69564941 45.50708008 26.31762695 C47 28 47 28 49 31 C45.38834178 31 44.6289281 30.38246609 42 28 C40.98133771 26.34467377 39.98189187 24.67739862 39 23 C38.278125 22.278125 37.55625 21.55625 36.8125 20.8125 C36.214375 20.214375 35.61625 19.61625 35 19 C35 18.34 35 17.68 35 17 C34.01 17 33.02 17 32 17 C30.5 15.25 30.5 15.25 29 13 C26.73337369 9.60623053 26.73337369 9.60623053 23 8 C22.34 7.01 21.68 6.02 21 5 C18.95811462 4.26733263 18.95811462 4.26733263 16.5625 3.9375 C15.67949219 3.78410156 14.79648437 3.63070313 13.88671875 3.47265625 C12.93410156 3.31667969 11.98148437 3.16070312 11 3 C8.95786919 2.62753589 6.91618625 2.25260625 4.875 1.875 C3.25016079 1.58243892 1.62521995 1.29043855 0 1 C0 0.67 0 0.34 0 0 Z " fill="#272F55" transform="translate(325,8)"/>
<path d="M0 0 C0.66 0.33 1.32 0.66 2 1 C1.31164062 1.76183594 1.31164062 1.76183594 0.609375 2.5390625 C-5.99879558 9.95243034 -10.12226382 15.17399913 -10.20532227 25.40893555 C-10.21522186 26.16039856 -10.22512146 26.91186157 -10.23532104 27.68609619 C-10.26690496 30.16960501 -10.29168116 32.65313296 -10.31640625 35.13671875 C-10.33697846 36.85879513 -10.35797501 38.5808665 -10.37937927 40.30293274 C-10.43457234 44.83533666 -10.48399382 49.36778594 -10.53222656 53.90026855 C-10.58246176 58.52535031 -10.63813729 63.1503662 -10.69335938 67.77539062 C-10.80090713 76.85020414 -10.90235964 85.92507486 -11 95 C-11.33 95 -11.66 95 -12 95 C-12.13060704 84.75149406 -12.26101014 74.50298555 -12.39115143 64.25447369 C-12.45158486 59.49590109 -12.51208908 54.73732942 -12.57275391 49.97875977 C-12.63127454 45.3881787 -12.68961074 40.79759532 -12.74781799 36.20701027 C-12.77007959 34.45389535 -12.79240813 32.70078128 -12.81480408 30.94766808 C-12.84611325 28.49595735 -12.8771864 26.04424374 -12.90820312 23.5925293 C-12.91755386 22.86460678 -12.9269046 22.13668427 -12.9365387 21.38670349 C-13.04137586 13.05318423 -13.04137586 13.05318423 -11.80664062 11.46606445 C-11.26201172 10.937146 -10.71738281 10.40822754 -10.15625 9.86328125 C-9.56972656 9.28642578 -8.98320312 8.70957031 -8.37890625 8.11523438 C-7.75886719 7.52033203 -7.13882812 6.92542969 -6.5 6.3125 C-5.87996094 5.70599609 -5.25992187 5.09949219 -4.62109375 4.47460938 C-3.08735293 2.97626257 -1.54451802 1.48723507 0 0 Z " fill="#2C3C69" transform="translate(269,68)"/>
<path d="M0 0 C5.75 -0.125 5.75 -0.125 8 1 C8 36.31 8 71.62 8 108 C6.515 108.495 6.515 108.495 5 109 C5.16265854 108.21337982 5.32531708 107.42675964 5.49290466 106.61630249 C6.12676799 102.09596605 6.13146503 97.69733732 6.11352539 93.13916016 C6.11367142 92.16292694 6.11381744 91.18669373 6.1139679 90.18087769 C6.11327345 86.96691637 6.10550297 83.75301364 6.09765625 80.5390625 C6.09579041 78.30561352 6.09436729 76.07216413 6.09336853 73.8387146 C6.08955644 67.96973535 6.07973733 62.10078097 6.06866455 56.23181152 C6.0584223 50.23917985 6.05386488 44.24654415 6.04882812 38.25390625 C6.03811388 26.50259326 6.02105317 14.7512987 6 3 C4.02 2.34 2.04 1.68 0 1 C0 0.67 0 0.34 0 0 Z " fill="#2B314E" transform="translate(235,58)"/>
<path d="M0 0 C0.99 0 1.98 0 3 0 C1.64326764 7.42978587 -0.1955008 14.65143773 -2.2578125 21.9140625 C-2.56572723 23.00971527 -2.87364197 24.10536804 -3.19088745 25.23422241 C-4.16541524 28.69881485 -5.14511897 32.16191825 -6.125 35.625 C-6.79070855 37.98818438 -7.45607651 40.35146473 -8.12109375 42.71484375 C-9.74345993 48.47767789 -11.37006665 54.23930183 -13 60 C-13.33 60 -13.66 60 -14 60 C-14.46866448 53.42950777 -12.74408111 47.9297081 -10.8125 41.6875 C-10.16965524 39.54975491 -9.52773712 37.41173096 -8.88671875 35.2734375 C-8.56751465 34.21737305 -8.24831055 33.16130859 -7.91943359 32.07324219 C-6.60136239 27.66753843 -5.35300166 23.24402478 -4.125 18.8125 C-3.92237549 18.08957764 -3.71975098 17.36665527 -3.51098633 16.62182617 C-1.62310122 9.90424207 -1.62310122 9.90424207 -1 3 C-0.67 2.01 -0.34 1.02 0 0 Z " fill="#272E52" transform="translate(131,76)"/>
<path d="M0 0 C0.99 0 1.98 0 3 0 C4.35439668 2.70879335 4.06501451 5.00933268 4 8 C4.66 8.33 5.32 8.66 6 9 C5.67 9.33 5.34 9.66 5 10 C6.32 10.33 7.64 10.66 9 11 C9 11.66 9 12.32 9 13 C11.89740622 13.13539281 14.78845621 13.23426829 17.6875 13.3125 C18.50412109 13.35439453 19.32074219 13.39628906 20.16210938 13.43945312 C24.73255814 13.53197233 26.40737212 13.48446766 30.08203125 10.48046875 C30.71496094 9.66191406 31.34789063 8.84335938 32 8 C32.93423645 11.01031744 33.04449911 11.86650268 32 15 C22.76 15 13.52 15 4 15 C1.89064603 9.37505608 0.59343896 5.69701401 0 0 Z " fill="#29325A" transform="translate(77,152)"/>
<path d="M0 0 C13.2 0 26.4 0 40 0 C40.66 1.65 41.32 3.3 42 5 C43.93618425 5.67156616 43.93618425 5.67156616 46 6 C47.75 7.375 47.75 7.375 49 9 C49 9.99 49 10.98 49 12 C45.74628978 10.62699726 44.4449734 9.29361531 42.46484375 6.43359375 C37.92943284 1.76254438 32.59913213 2.17021584 26.46810913 2.04647827 C23.8324072 2.0290015 21.19817902 2.04493362 18.5625 2.0625 C16.76364608 2.0493815 14.96481207 2.03313689 13.16601562 2.01367188 C8.7767472 1.9729552 4.38936569 1.97493242 0 2 C0 1.34 0 0.68 0 0 Z " fill="#373E6A" transform="translate(290,50)"/>
<path d="M0 0 C0.99 0 1.98 0 3 0 C2.96970703 0.56992676 2.93941406 1.13985352 2.90820312 1.72705078 C2.01129809 19.16495451 1.88327723 36.5454571 2 54 C1.01 54 0.02 54 -1 54 C-0.67 36.18 -0.34 18.36 0 0 Z " fill="#2B3355" transform="translate(343,68)"/>
<path d="M0 0 C3.39133719 3.58971624 3.87076494 7.54292711 4.5625 12.25 C5.2480933 16.66130316 5.95726574 21.00424769 7.08203125 25.328125 C7.93322623 28.73290493 8.17431479 31.51370421 8 35 C7.34 35 6.68 35 6 35 C4.85602518 30.64125819 3.71682533 26.28130705 2.58203125 21.92016602 C2.19532135 20.43675073 1.80730913 18.95367432 1.41796875 17.47094727 C0.85854804 15.33958289 0.30382301 13.20704354 -0.25 11.07421875 C-0.42499023 10.41161545 -0.59998047 9.74901215 -0.78027344 9.06632996 C-1.49911058 6.28185301 -2 3.8909461 -2 1 C-1.34 0.67 -0.68 0.34 0 0 Z " fill="#2E375C" transform="translate(59,72)"/>
<path d="M0 0 C2.3125 0.1875 2.3125 0.1875 4 1 C2.87760341 2.12239659 1.75450509 3.24409608 0.62890625 4.36328125 C-0.58179843 5.57979266 -1.78047748 6.80829648 -2.97265625 8.04296875 C-3.66230469 8.75066406 -4.35195312 9.45835938 -5.0625 10.1875 C-5.71347656 10.86167969 -6.36445313 11.53585938 -7.03515625 12.23046875 C-10.37878391 15.24172785 -13.06018561 16.25594344 -17.546875 16.1953125 C-18.81337891 16.18564453 -18.81337891 16.18564453 -20.10546875 16.17578125 C-20.97816406 16.15902344 -21.85085937 16.14226563 -22.75 16.125 C-24.08224609 16.11146484 -24.08224609 16.11146484 -25.44140625 16.09765625 C-27.62788058 16.07414577 -29.81380094 16.04128499 -32 16 C-32 15.34 -32 14.68 -32 14 C-30.17662109 13.90912109 -30.17662109 13.90912109 -28.31640625 13.81640625 C-26.73175772 13.73201668 -25.14712298 13.6473679 -23.5625 13.5625 C-22.76005859 13.52318359 -21.95761719 13.48386719 -21.13085938 13.44335938 C-17.24760439 13.5945704 -17.24760439 13.5945704 -14 12 C-12.33382885 11.95936168 -10.66611905 11.957279 -9 12 C-8.896875 11.401875 -8.79375 10.80375 -8.6875 10.1875 C-7.87482635 7.6017202 -7.01062204 6.79519825 -5 5 C-4.195625 4.0925 -3.39125 3.185 -2.5625 2.25 C-1.716875 1.5075 -0.87125 0.765 0 0 Z " fill="#383465" transform="translate(176,36)"/>
<path d="M0 0 C0.87107895 -0.01606293 1.7421579 -0.03212585 2.63963318 -0.04867554 C6.61521661 -0.09305703 10.59063334 -0.13416777 14.56640625 -0.15722656 C16.66645365 -0.17381487 18.76644394 -0.20114242 20.86621094 -0.23925781 C23.88905203 -0.2938603 26.91057096 -0.31587225 29.93383789 -0.33056641 C30.87452621 -0.35323578 31.81521454 -0.37590515 32.78440857 -0.39926147 C35.21736916 -0.3913299 37.40744276 -0.33882 39.78149414 0.19287109 C43.01541856 3.77308333 43.31860039 7.47135488 43.78149414 12.19287109 C43.12149414 12.19287109 42.46149414 12.19287109 41.78149414 12.19287109 C41.32576497 10.17464193 40.87003581 8.15641276 40.41430664 6.13818359 C39.87674986 3.98567145 39.87674986 3.98567145 37.78149414 2.19287109 C35.21190978 1.89756594 35.21190978 1.89756594 32.20727539 1.96240234 C31.0707251 1.96369141 29.9341748 1.96498047 28.76318359 1.96630859 C26.94693481 1.98564453 26.94693481 1.98564453 25.09399414 2.00537109 C23.87349365 2.01181641 22.65299316 2.01826172 21.39550781 2.02490234 C12.82502242 2.09775062 4.31577908 2.39233515 -4.21850586 3.19287109 C-4.21850586 3.85287109 -4.21850586 4.51287109 -4.21850586 5.19287109 C-5.20850586 5.19287109 -6.19850586 5.19287109 -7.21850586 5.19287109 C-7.54850586 6.18287109 -7.87850586 7.17287109 -8.21850586 8.19287109 C-9.20850586 7.86287109 -10.19850586 7.53287109 -11.21850586 7.19287109 C-5.47713074 0.0916966 -5.47713074 0.0916966 0 0 Z " fill="#272A52" transform="translate(29.218505859375,7.80712890625)"/>
<path d="M0 0 C0.83050873 0.00444122 1.66101746 0.00888245 2.51669312 0.01345825 C3.92792953 0.01368484 3.92792953 0.01368484 5.36767578 0.01391602 C6.38542084 0.02423859 7.40316589 0.03456116 8.45175171 0.04519653 C9.49213593 0.04802643 10.53252014 0.05085632 11.60443115 0.05377197 C14.93646615 0.064992 18.26823507 0.09009989 21.60018921 0.11550903 C23.85539367 0.12553648 26.11060233 0.13466273 28.36581421 0.14285278 C33.90236375 0.16493725 39.43875748 0.19843265 44.97518921 0.24050903 C45.47018921 2.71550903 45.47018921 2.71550903 45.97518921 5.24050903 C45.31518921 3.92050903 44.65518921 2.60050903 43.97518921 1.24050903 C29.45518921 1.57050903 14.93518921 1.90050903 -0.02481079 2.24050903 C-0.02481079 2.90050903 -0.02481079 3.56050903 -0.02481079 4.24050903 C-0.68481079 4.24050903 -1.34481079 4.24050903 -2.02481079 4.24050903 C-2.02481079 9.85050903 -2.02481079 15.46050903 -2.02481079 21.24050903 C-2.68481079 21.57050903 -3.34481079 21.90050903 -4.02481079 22.24050903 C-4.08271432 18.94891587 -4.1183734 15.657453 -4.14981079 12.36550903 C-4.1665686 11.4283606 -4.18332642 10.49121216 -4.20059204 9.52566528 C-4.21026001 8.18181763 -4.21026001 8.18181763 -4.22012329 6.81082153 C-4.23059692 5.98340454 -4.24107056 5.15598755 -4.25186157 4.30349731 C-3.92939042 1.37351751 -2.93307816 0.34839393 0 0 Z " fill="#272C50" transform="translate(197.02481079101563,7.759490966796875)"/>
<path d="M0 0 C0.99 0.33 1.98 0.66 3 1 C3.0867562 5.29154022 3.1403089 9.58285668 3.1875 13.875 C3.21263672 15.09832031 3.23777344 16.32164063 3.26367188 17.58203125 C3.27817383 19.33193359 3.27817383 19.33193359 3.29296875 21.1171875 C3.3086792 22.19597168 3.32438965 23.27475586 3.34057617 24.38623047 C3.22818604 25.24877441 3.1157959 26.11131836 3 27 C2.01 27.66 1.02 28.32 0 29 C0 21.08 0 13.16 0 5 C-1.32 4.67 -2.64 4.34 -4 4 C-2.68 2.68 -1.36 1.36 0 0 Z " fill="#26315D" transform="translate(432,8)"/>
<path d="M0 0 C1.35117416 0.0001133 1.35117416 0.0001133 2.72964478 0.00022888 C3.70364227 0.00539017 4.67763977 0.01055145 5.68115234 0.01586914 C6.67714447 0.01728409 7.6731366 0.01869904 8.6993103 0.02015686 C11.88860037 0.02576603 15.0778209 0.03832009 18.26708984 0.05102539 C20.425943 0.05603921 22.58479725 0.06060232 24.74365234 0.06469727 C30.04315534 0.07573844 35.34261763 0.09248552 40.64208984 0.11352539 C38.64208984 2.11352539 38.64208984 2.11352539 35.72460938 2.32470703 C34.50370605 2.30786865 33.28280273 2.29103027 32.02490234 2.27368164 C31.37133759 2.26848007 30.71777283 2.2632785 30.04440308 2.25791931 C27.95174076 2.24008811 25.85956515 2.20893803 23.76708984 2.17602539 C21.68180189 2.14835309 19.59658752 2.12361992 17.51119995 2.10484314 C15.61351372 2.08701415 13.71592467 2.05961057 11.81835938 2.03173828 C9.16143422 2.10015257 7.16338562 2.39458096 4.64208984 3.11352539 C0.38783291 3.34143201 -2.7079949 3.44947115 -6.35791016 1.11352539 C-4.00590956 -0.06247491 -2.62056615 -0.00732002 0 0 Z " fill="#34365B" transform="translate(10.35791015625,57.886474609375)"/>
<path d="M0 0 C0.33 0 0.66 0 1 0 C1.02464928 5.25105442 1.04283568 10.50207545 1.05493164 15.75317383 C1.05997218 17.54094021 1.06680454 19.32870245 1.07543945 21.11645508 C1.0875173 23.68051168 1.09323094 26.24451397 1.09765625 28.80859375 C1.10281754 29.6127623 1.10797882 30.41693085 1.11329651 31.24546814 C1.11349215 33.16401715 1.06201983 35.08245368 1 37 C-0.77368347 38.77368347 -3.28895425 38.1727488 -5.6875 38.1875 C-10.17743966 38.16074231 -13.83908027 37.84929766 -18 36 C-17.34 35.01 -16.68 34.02 -16 33 C-15.40832031 33.20496094 -14.81664062 33.40992188 -14.20703125 33.62109375 C-10.16339184 34.9997571 -6.23144751 36.31750847 -2 37 C-1.21107637 33.55462259 -0.91685496 30.46596762 -1 26.9375 C-1.0902685 17.94450088 -0.49668235 8.97575957 0 0 Z " fill="#242C51" transform="translate(434,129)"/>
<path d="M0 0 C0.33 0 0.66 0 1 0 C1 12.87 1 25.74 1 39 C-0.485 39.495 -0.485 39.495 -2 40 C-2.02887512 36.35418313 -2.04675585 32.70839537 -2.0625 29.0625 C-2.07087891 28.02158203 -2.07925781 26.98066406 -2.08789062 25.90820312 C-2.09272461 24.42416992 -2.09272461 24.42416992 -2.09765625 22.91015625 C-2.10289307 21.99371338 -2.10812988 21.07727051 -2.11352539 20.13305664 C-2 18 -2 18 -1 17 C-0.76298761 14.14122091 -0.57780818 11.30116703 -0.4375 8.4375 C-0.39431641 7.63119141 -0.35113281 6.82488281 -0.30664062 5.99414062 C-0.20024738 3.99631195 -0.09959112 1.9981793 0 0 Z " fill="#333C65" transform="translate(195,12)"/>
<path d="M0 0 C0.69116211 1.67236328 0.69116211 1.67236328 1 4 C-0.86343856 8.37806314 -3.71769235 11.85496587 -8 14 C-15.19491551 15.54961429 -22.78546306 14.61339966 -30.0625 14.125 C-32.09287498 14.02651831 -34.12348295 13.93272179 -36.15429688 13.84375 C-41.10720516 13.61658481 -46.05263682 13.32573924 -51 13 C-51 12.67 -51 12.34 -51 12 C-37.14 12 -23.28 12 -9 12 C-9 11.34 -9 10.68 -9 10 C-8.34 10 -7.68 10 -7 10 C-6.773125 9.46375 -6.54625 8.9275 -6.3125 8.375 C-4.56617944 5.21499137 -2.3597151 2.7323017 0 0 Z " fill="#2B3264" transform="translate(505,40)"/>
<path d="M0 0 C0.66 0.33 1.32 0.66 2 1 C2 1.99 2 2.98 2 4 C1.34 4 0.68 4 0 4 C0.21527344 4.96035156 0.43054688 5.92070313 0.65234375 6.91015625 C1.34335465 11.74723255 -0.01897815 15.8411929 -1.4375 20.4375 C-1.68048828 21.26443359 -1.92347656 22.09136719 -2.17382812 22.94335938 C-2.77008513 24.96595665 -3.3833243 26.98353447 -4 29 C-4.66 28.67 -5.32 28.34 -6 28 C-5.55367566 21.86304034 -4.40995414 16.03846873 -3 10.0625 C-2.82178711 9.30461182 -2.64357422 8.54672363 -2.45996094 7.76586914 C-1.13626453 2.27252907 -1.13626453 2.27252907 0 0 Z " fill="#30385D" transform="translate(113,34)"/>
<path d="M0 0 C0.66 0.66 1.32 1.32 2 2 C1.56733439 7.62465297 0.01587111 13.72772172 -2 19 C-2.99 19.66 -3.98 20.32 -5 21 C-6.85735533 14.71356657 -8.43247063 8.36416924 -10 2 C-9.34 1.67 -8.68 1.34 -8 1 C-7.49363393 2.74816858 -6.99515381 4.49862263 -6.5 6.25 C-6.2215625 7.22453125 -5.943125 8.1990625 -5.65625 9.203125 C-5 12 -5 12 -5 16 C-4.34 16 -3.68 16 -3 16 C-2.814375 14.2675 -2.814375 14.2675 -2.625 12.5 C-2.09721115 8.21649625 -1.11601963 4.16647328 0 0 Z " fill="#242A51" transform="translate(99,91)"/>
<path d="M0 0 C0.33 0 0.66 0 1 0 C1.01981934 0.60996826 1.03963867 1.21993652 1.06005859 1.84838867 C1.15567876 4.62850533 1.26520705 7.40790846 1.375 10.1875 C1.4059375 11.14720703 1.436875 12.10691406 1.46875 13.09570312 C1.50742187 14.02705078 1.54609375 14.95839844 1.5859375 15.91796875 C1.6173584 16.77156982 1.6487793 17.6251709 1.68115234 18.50463867 C2.03414124 21.2671957 2.93444293 23.43768868 4 26 C4.103125 27.093125 4.20625 28.18625 4.3125 29.3125 C5.3317845 34.77957142 8.08077723 39.08077723 12 43 C9 43 9 43 7.0625 41.125 C2.30081083 33.91031943 -0.14588252 26.11297192 -0.09765625 17.48046875 C-0.09443359 16.45888672 -0.09121094 15.43730469 -0.08789062 14.38476562 C-0.07951172 13.32966797 -0.07113281 12.27457031 -0.0625 11.1875 C-0.05798828 10.11306641 -0.05347656 9.03863281 -0.04882812 7.93164062 C-0.03707729 5.28770317 -0.02064787 2.64388048 0 0 Z " fill="#252E4D" transform="translate(396,114)"/>
<path d="M0 0 C0.50615298 1.26839526 1.00469099 2.53983102 1.5 3.8125 C1.7784375 4.52019531 2.056875 5.22789063 2.34375 5.95703125 C3 8 3 8 3 11 C1.68 10.34 0.36 9.68 -1 9 C-1 7.02 -1 5.04 -1 3 C-7.27 3 -13.54 3 -20 3 C-20 2.67 -20 2.34 -20 2 C-13.25846717 0.74158054 -6.86515862 -0.26404456 0 0 Z " fill="#363E63" transform="translate(53,50)"/>
<path d="M0 0 C0.99 0.33 1.98 0.66 3 1 C2.34 1.66 1.68 2.32 1 3 C0.82511746 5.43744897 0.76822595 7.7593608 0.8046875 10.1953125 C0.8075174 10.90275604 0.81034729 11.61019958 0.81326294 12.33908081 C0.82446863 14.6012251 0.84957321 16.86297515 0.875 19.125 C0.88502933 20.65754637 0.89415526 22.19009894 0.90234375 23.72265625 C0.92440914 27.48192301 0.95894104 31.24089464 1 35 C1.33 35 1.66 35 2 35 C2.125 40.75 2.125 40.75 1 43 C0.34 43 -0.32 43 -1 43 C-1.02464574 37.03686834 -1.042834 31.07376605 -1.05493164 25.1105957 C-1.05997278 23.08031702 -1.06680557 21.05004198 -1.07543945 19.01977539 C-1.08751467 16.10822653 -1.09323034 13.1967255 -1.09765625 10.28515625 C-1.10281754 9.3716188 -1.10797882 8.45808136 -1.11329651 7.51686096 C-1.11349168 5.34424573 -1.06211805 3.17172704 -1 1 C-0.67 0.67 -0.34 0.34 0 0 Z " fill="#282F51" transform="translate(443,124)"/>
<path d="M0 0 C0.33 0 0.66 0 1 0 C1.05437005 2.85442753 1.09384974 5.70780076 1.125 8.5625 C1.15013672 9.76229492 1.15013672 9.76229492 1.17578125 10.98632812 C1.21723982 16.06500335 0.64056075 20.18811906 -1 25 C-2.20029908 22.59940183 -2.11459743 21.10639351 -2.09765625 18.4296875 C-2.09443359 17.53378906 -2.09121094 16.63789062 -2.08789062 15.71484375 C-2.07951172 14.77769531 -2.07113281 13.84054688 -2.0625 12.875 C-2.05798828 11.93011719 -2.05347656 10.98523437 -2.04882812 10.01171875 C-2.03702357 7.67441613 -2.02055759 5.33723939 -2 3 C-1.34 3 -0.68 3 0 3 C0 2.01 0 1.02 0 0 Z " fill="#273059" transform="translate(434,38)"/>
<path d="M0 0 C0.66 0 1.32 0 2 0 C2 5.94 2 11.88 2 18 C1.01 18 0.02 18 -1 18 C-1.02684312 15.18743719 -1.04676188 12.37512759 -1.0625 9.5625 C-1.07087891 8.76005859 -1.07925781 7.95761719 -1.08789062 7.13085938 C-1.0965143 5.08704779 -1.0522815 3.04316098 -1 1 C-0.67 0.67 -0.34 0.34 0 0 Z " fill="#2E3664" transform="translate(5,31)"/>
<path d="M0 0 C7.59 0 15.18 0 23 0 C22.67 0.66 22.34 1.32 22 2 C15.50927229 3.38993361 8.60476723 3.12647427 2 3 C2 2.34 2 1.68 2 1 C1.34 0.67 0.68 0.34 0 0 Z " fill="#353E71" transform="translate(286,165)"/>
<path d="M0 0 C-0.33 0.66 -0.66 1.32 -1 2 C-9.58 2 -18.16 2 -27 2 C-26.67 1.34 -26.34 0.68 -26 0 C-23.1670419 -0.1967332 -20.33403677 -0.38259641 -17.5 -0.5625 C-16.70851563 -0.61857422 -15.91703125 -0.67464844 -15.1015625 -0.73242188 C-9.90480221 -1.05189484 -5.14718438 -0.79686914 0 0 Z " fill="#354068" transform="translate(285,165)"/>
<path d="M0 0 C1 1 1 1 1.11352539 2.94946289 C1.10828857 3.7821167 1.10305176 4.61477051 1.09765625 5.47265625 C1.09443359 6.37177734 1.09121094 7.27089844 1.08789062 8.19726562 C1.07951172 9.14279297 1.07113281 10.08832031 1.0625 11.0625 C1.05798828 12.01189453 1.05347656 12.96128906 1.04882812 13.93945312 C1.0370011 16.29303065 1.02052025 18.64648477 1 21 C-1.22375191 16.98944392 -1.43388171 13.25720637 -1.625 8.75 C-1.66367188 8.00492188 -1.70234375 7.25984375 -1.7421875 6.4921875 C-1.83605108 4.6618476 -1.91909718 2.83095857 -2 1 C-4.97 1 -7.94 1 -11 1 C-11 0.67 -11 0.34 -11 0 C-7.0222139 -1.05294338 -4.00768083 -0.91083655 0 0 Z " fill="#282E59" transform="translate(187,59)"/>
<path d="M0 0 C0.99 0.33 1.98 0.66 3 1 C2.37798054 3.54242904 1.75248241 6.08391875 1.125 8.625 C0.95097656 9.33785156 0.77695313 10.05070313 0.59765625 10.78515625 C-0.42854338 14.92796216 -1.58790729 18.96726678 -3 23 C-4.32 21.68 -5.64 20.36 -7 19 C-6.67 18.34 -6.34 17.68 -6 17 C-5.01 17 -4.02 17 -3 17 C-2.34 12.71 -1.68 8.42 -1 4 C-0.34 4 0.32 4 1 4 C0.67 2.68 0.34 1.36 0 0 Z " fill="#292F52" transform="translate(114,137)"/>
<path d="M0 0 C-0.33 1.32 -0.66 2.64 -1 4 C-13.54 4 -26.08 4 -39 4 C-39 3.67 -39 3.34 -39 3 C-38.0212793 2.98018066 -37.04255859 2.96036133 -36.03417969 2.93994141 C-32.39606403 2.86375376 -28.75834147 2.77505705 -25.12060547 2.68261719 C-23.54744235 2.64438171 -21.97419342 2.60951934 -20.40087891 2.578125 C-18.13673277 2.53235578 -15.87317453 2.47438239 -13.609375 2.4140625 C-12.90818542 2.40251129 -12.20699585 2.39096008 -11.48455811 2.37905884 C-7.28818306 2.2527977 -3.84660838 0 0 0 Z " fill="#2A3153" transform="translate(519,163)"/>
<path d="M0 0 C0.80244141 0.04833984 1.60488281 0.09667969 2.43164062 0.14648438 C3.68170898 0.2305957 3.68170898 0.2305957 4.95703125 0.31640625 C6.22450195 0.3947168 6.22450195 0.3947168 7.51757812 0.47460938 C9.60189424 0.60414314 11.68576307 0.74083802 13.76953125 0.87890625 C13.76953125 1.53890625 13.76953125 2.19890625 13.76953125 2.87890625 C6.50953125 2.87890625 -0.75046875 2.87890625 -8.23046875 2.87890625 C-6.46685872 -0.64831381 -3.50135062 -0.22349047 0 0 Z " fill="#303563" transform="translate(276.23046875,49.12109375)"/>
<path d="M0 0 C0.66 0 1.32 0 2 0 C4.34811224 4.79831632 5.36955183 8.64098521 5.59375 13.984375 C6.09681768 16.48036465 7.08182492 17.38791669 9 19 C8.67 19.99 8.34 20.98 8 22 C7.34 21.67 6.68 21.34 6 21 C5.67 21.66 5.34 22.32 5 23 C4.16301505 19.54253984 3.33103324 16.08389511 2.5 12.625 C2.26152344 11.64015625 2.02304688 10.6553125 1.77734375 9.640625 C1.55175781 8.69960937 1.32617188 7.75859375 1.09375 6.7890625 C0.88427734 5.91975098 0.67480469 5.05043945 0.45898438 4.15478516 C0 2 0 2 0 0 Z " fill="#222D58" transform="translate(71,129)"/>
<path d="M0 0 C0.433125 0.474375 0.86625 0.94875 1.3125 1.4375 C3.02309613 3.23686957 3.02309613 3.23686957 6 4 C6 9.28 6 14.56 6 20 C5.34 19.67 4.68 19.34 4 19 C3.19302005 16.55844387 2.50322609 14.17480995 1.875 11.6875 C1.69324219 11.01009766 1.51148437 10.33269531 1.32421875 9.63476562 C0.45138936 6.27798193 0 3.49419858 0 0 Z " fill="#27305A" transform="translate(66,108)"/>
<path d="M0 0 C1.76923828 0.04060547 1.76923828 0.04060547 3.57421875 0.08203125 C4.47785156 0.11683594 5.38148438 0.15164062 6.3125 0.1875 C6.3125 0.5175 6.3125 0.8475 6.3125 1.1875 C5.55324219 1.24808594 4.79398438 1.30867187 4.01171875 1.37109375 C3.01785156 1.45488281 2.02398437 1.53867188 1 1.625 C0.01386719 1.70621094 -0.97226563 1.78742187 -1.98828125 1.87109375 C-4.78125599 2.10562559 -4.78125599 2.10562559 -7.6875 3.1875 C-8.6775 8.1375 -9.6675 13.0875 -10.6875 18.1875 C-11.3475 18.1875 -12.0075 18.1875 -12.6875 18.1875 C-12.26419598 15.74674703 -11.82460538 13.31092171 -11.375 10.875 C-11.25705078 10.18470703 -11.13910156 9.49441406 -11.01757812 8.78320312 C-10.49931016 6.03239623 -9.95409077 3.62947944 -8.5 1.21875 C-5.68337686 -0.38381144 -3.1994863 -0.09503425 0 0 Z " fill="#252B4D" transform="translate(127.6875,7.8125)"/>
<path d="M0 0 C0.99 0.33 1.98 0.66 3 1 C3.45842179 4.53366794 3.18346888 5.7506425 1.03125 8.67578125 C0.1959375 9.54589844 -0.639375 10.41601562 -1.5 11.3125 C-2.3353125 12.19550781 -3.170625 13.07851563 -4.03125 13.98828125 C-4.6809375 14.65214844 -5.330625 15.31601562 -6 16 C-6.33 15.01 -6.66 14.02 -7 13 C-5.25 10.5625 -5.25 10.5625 -3 8 C-0.30120804 4.8192809 0 4.42620242 0 0 Z " fill="#333A5D" transform="translate(514,25)"/>
<path d="M0 0 C2.05710856 3.08566284 2.78346093 5.36985312 3.6875 8.9375 C3.95949219 9.97777344 4.23148437 11.01804687 4.51171875 12.08984375 C4.97828785 14.8705956 4.93894816 16.38480882 4 19 C2.54296875 18.01171875 2.54296875 18.01171875 1 16 C0.62325482 13.20748417 0.39808059 10.61220799 0.3125 7.8125 C0.27833984 7.06291016 0.24417969 6.31332031 0.20898438 5.54101562 C0.12665706 3.69453162 0.06164719 1.84729006 0 0 Z " fill="#2C3356" transform="translate(85,72)"/>
<path d="M0 0 C2.70583756 0.25560029 5.37210774 0.56759978 8.0625 0.9375 C9.20041992 1.08735352 9.20041992 1.08735352 10.36132812 1.24023438 C12.24154246 1.48856457 14.12086128 1.74365751 16 2 C16 2.33 16 2.66 16 3 C7.09 3 -1.82 3 -11 3 C-11 2.67 -11 2.34 -11 2 C-10.28972656 1.93941406 -9.57945312 1.87882813 -8.84765625 1.81640625 C-7.46900391 1.69072266 -7.46900391 1.69072266 -6.0625 1.5625 C-5.14597656 1.48128906 -4.22945313 1.40007812 -3.28515625 1.31640625 C-1.03840268 1.23955024 -1.03840268 1.23955024 0 0 Z " fill="#484A5E" transform="translate(309,165)"/>
<path d="M0 0 C1.2022972 3.60689159 0.43388238 4.75647221 -1.20507812 8.04492188 C-1.52927734 8.66947266 -1.85347656 9.29402344 -2.1875 9.9375 C-2.64479492 10.86852539 -2.64479492 10.86852539 -3.11132812 11.81835938 C-4.96994661 15.47714921 -6.92555069 18.28003265 -10 21 C-10.33 19.68 -10.66 18.36 -11 17 C-10.38125 16.938125 -9.7625 16.87625 -9.125 16.8125 C-6.83832137 16.20093476 -6.83832137 16.20093476 -5.9375 14.0625 C-5.36949256 12.20700903 -4.81480702 10.34727063 -4.28515625 8.48046875 C-4.02605469 7.57941406 -3.76695312 6.67835938 -3.5 5.75 C-3.2628125 4.87859375 -3.025625 4.0071875 -2.78125 3.109375 C-2 1 -2 1 0 0 Z " fill="#282F51" transform="translate(383,139)"/>
<path d="M0 0 C0.66 0.33 1.32 0.66 2 1 C1.52949219 1.51949219 1.05898438 2.03898437 0.57421875 2.57421875 C-3.39465646 7.0042264 -3.39465646 7.0042264 -6.6875 11.9375 C-8 14 -8 14 -10.1875 14.8125 C-10.785625 14.874375 -11.38375 14.93625 -12 15 C-12 12 -12 12 -9.375 9.08203125 C-8.25750594 7.98449244 -7.13214357 6.89492105 -6 5.8125 C-5.42765625 5.25369141 -4.8553125 4.69488281 -4.265625 4.11914062 C-2.85037212 2.73926907 -1.42602845 1.36873266 0 0 Z " fill="#383E64" transform="translate(269,68)"/>
<path d="M0 0 C0.99 0.33 1.98 0.66 3 1 C3 5.95 3 10.9 3 16 C2.34 16 1.68 16 1 16 C0.67 12.37 0.34 8.74 0 5 C-1.32 4.67 -2.64 4.34 -4 4 C-2.68 2.68 -1.36 1.36 0 0 Z " fill="#232A53" transform="translate(432,8)"/>
<path d="M0 0 C5.28 0 10.56 0 16 0 C17.00016187 2.00032373 17.49396008 3.83125748 18 6 C17.67 5.34 17.34 4.68 17 4 C16.01 4.33 15.02 4.66 14 5 C13.67 4.01 13.34 3.02 13 2 C8.71 2 4.42 2 0 2 C0 1.34 0 0.68 0 0 Z " fill="#293262" transform="translate(52,9)"/>
<path d="M0 0 C0.66 0 1.32 0 2 0 C2.99 4.29 3.98 8.58 5 13 C5.66 13 6.32 13 7 13 C7 14.32 7 15.64 7 17 C6.01 17 5.02 17 4 17 C1.16625922 11.33251843 0.36776168 6.30267439 0 0 Z " fill="#2D3C6A" transform="translate(89,98)"/>
<path d="M0 0 C1.485 0.99 1.485 0.99 3 2 C3.7425 1.835 4.485 1.67 5.25 1.5 C8.91441815 0.83374216 11.51258028 1.83752676 15 3 C15 3.33 15 3.66 15 4 C10.05 4.33 5.1 4.66 0 5 C-0.33 3.68 -0.66 2.36 -1 1 C-0.67 0.67 -0.34 0.34 0 0 Z " fill="#1D294F" transform="translate(442,48)"/>
<path d="M0 0 C0.33 1.32 0.66 2.64 1 4 C-0.21484375 5.921875 -0.21484375 5.921875 -1.9375 7.75 C-2.50339844 8.36359375 -3.06929688 8.9771875 -3.65234375 9.609375 C-4.31943359 10.29773438 -4.31943359 10.29773438 -5 11 C-5.99 10.67 -6.98 10.34 -8 10 C-5.36 6.7 -2.72 3.4 0 0 Z " fill="#353C65" transform="translate(505,40)"/>
<path d="M0 0 C-0.639375 0.12375 -1.27875 0.2475 -1.9375 0.375 C-2.618125 0.58125 -3.29875 0.7875 -4 1 C-4.33 1.66 -4.66 2.32 -5 3 C-7.6855594 5.6855594 -10.37621328 6.06049974 -14 7 C-13 4 -13 4 -10.8203125 2.578125 C-9.93085938 2.13984375 -9.04140625 1.7015625 -8.125 1.25 C-7.24070312 0.80140625 -6.35640625 0.3528125 -5.4453125 -0.109375 C-3 -1 -3 -1 0 0 Z " fill="#232A50" transform="translate(427,11)"/>
<path d="M0 0 C0.99 0.33 1.98 0.66 3 1 C1.73427767 2.15147661 0.46222094 3.29599314 -0.8125 4.4375 C-1.52019531 5.07558594 -2.22789062 5.71367188 -2.95703125 6.37109375 C-5 8 -5 8 -8 9 C-8 7.68 -8 6.36 -8 5 C-6.35 5 -4.7 5 -3 5 C-2.814375 4.0409375 -2.814375 4.0409375 -2.625 3.0625 C-2.41875 2.381875 -2.2125 1.70125 -2 1 C-1.34 0.67 -0.68 0.34 0 0 Z " fill="#34375A" transform="translate(170,43)"/>
<path d="M0 0 C0.66 0.99 1.32 1.98 2 3 C1.195625 3.61875 0.39125 4.2375 -0.4375 4.875 C-3.03874519 6.74164041 -3.03874519 6.74164041 -4 9 C-6.0625 9.625 -6.0625 9.625 -8 10 C-6.34908222 5.70761377 -3.26245434 3.1206085 0 0 Z " fill="#252D52" transform="translate(12,22)"/>
<path d="M0 0 C1.22602512 3.67807537 0.70295577 5.88243927 0.0625 9.6875 C-0.13214844 10.86699219 -0.32679688 12.04648438 -0.52734375 13.26171875 C-0.68332031 14.16535156 -0.83929688 15.06898437 -1 16 C-1.33 16 -1.66 16 -2 16 C-2.05384521 13.70858714 -2.09272087 11.41681812 -2.125 9.125 C-2.14820313 7.84882812 -2.17140625 6.57265625 -2.1953125 5.2578125 C-2 2 -2 2 0 0 Z " fill="#2A2C53" transform="translate(195,58)"/>
<path d="M0 0 C0.33 0 0.66 0 1 0 C1.08119503 2.24940295 1.13927819 4.49964871 1.1875 6.75 C1.22230469 8.00296875 1.25710937 9.2559375 1.29296875 10.546875 C0.98827695 14.1381757 0.57265731 15.533239 -2 18 C-2.66 18 -3.32 18 -4 18 C-3.625 15.5625 -3.625 15.5625 -3 13 C-2.34 12.67 -1.68 12.34 -1 12 C-0.53101037 9.1840151 -0.53101037 9.1840151 -0.375 5.9375 C-0.30023438 4.83277344 -0.22546875 3.72804688 -0.1484375 2.58984375 C-0.09945312 1.73519531 -0.05046875 0.88054688 0 0 Z " fill="#232952" transform="translate(187,15)"/>
<path d="M0 0 C0.66 0.99 1.32 1.98 2 3 C1.01 3.495 1.01 3.495 0 4 C-0.103125 4.804375 -0.20625 5.60875 -0.3125 6.4375 C-0.539375 7.283125 -0.76625 8.12875 -1 9 C-3.5625 10.3125 -3.5625 10.3125 -6 11 C-4.74194623 6.49197399 -3.09592835 3.5087188 0 0 Z " fill="#252A53" transform="translate(406,22)"/>
<path d="M0 0 C2.64 0.33 5.28 0.66 8 1 C6.25 3.0625 6.25 3.0625 4 5 C1.75 4.75 1.75 4.75 0 4 C0 2.68 0 1.36 0 0 Z " fill="#2B365B" transform="translate(362,162)"/>
<path d="M0 0 C-0.639375 0.268125 -1.27875 0.53625 -1.9375 0.8125 C-4.33131686 1.88667752 -4.33131686 1.88667752 -5 5 C-5.99 5 -6.98 5 -8 5 C-8.33 5.99 -8.66 6.98 -9 8 C-9.99 7.67 -10.98 7.34 -12 7 C-6.20833333 -0.16337719 -6.20833333 -0.16337719 0 0 Z " fill="#1C2545" transform="translate(30,8)"/>
<path d="M0 0 C0.33 0.99 0.66 1.98 1 3 C4.96 3 8.92 3 13 3 C13 3.33 13 3.66 13 4 C8.05 4 3.1 4 -2 4 C-2.33 3.01 -2.66 2.02 -3 1 C-2.01 0.67 -1.02 0.34 0 0 Z " fill="#242B4A" transform="translate(83,163)"/>
<path d="M0 0 C0.66 0.33 1.32 0.66 2 1 C2 1.66 2 2.32 2 3 C1.34 3 0.68 3 0 3 C-0.66 4.98 -1.32 6.96 -2 9 C-2.99 9 -3.98 9 -5 9 C-4.5504955 7.68445015 -4.09010284 6.37261642 -3.625 5.0625 C-3.36976563 4.33160156 -3.11453125 3.60070313 -2.8515625 2.84765625 C-2 1 -2 1 0 0 Z " fill="#32416C" transform="translate(141,49)"/>
<path d="M0 0 C1.485 0.99 1.485 0.99 3 2 C3.25660094 5.07921132 3.39431504 7.21136993 2 10 C1.34 10 0.68 10 0 10 C0 6.7 0 3.4 0 0 Z " fill="#202A4D" transform="translate(442,157)"/>
<path d="M0 0 C0.66 0 1.32 0 2 0 C3.625 3.25 3.625 3.25 5 7 C4.0859375 9.234375 4.0859375 9.234375 3 11 C2.49632243 9.54293274 1.99717444 8.08429904 1.5 6.625 C1.2215625 5.81289062 0.943125 5.00078125 0.65625 4.1640625 C0 2 0 2 0 0 Z " fill="#2E3458" transform="translate(71,129)"/>
<path d="M0 0 C2 3 2 3 1.5390625 5.48046875 C1.23742187 6.37378906 0.93578125 7.26710938 0.625 8.1875 C0.32851562 9.08855469 0.03203125 9.98960938 -0.2734375 10.91796875 C-0.63308594 11.94857422 -0.63308594 11.94857422 -1 13 C-1.66 12.34 -2.32 11.68 -3 11 C-2.79296875 8.65234375 -2.79296875 8.65234375 -2.1875 5.9375 C-1.99542969 5.03902344 -1.80335938 4.14054687 -1.60546875 3.21484375 C-1 1 -1 1 0 0 Z " fill="#242A50" transform="translate(136,62)"/>
<path d="M0 0 C5.875 4.625 5.875 4.625 7 8 C5.35 7.67 3.7 7.34 2 7 C1.34 4.69 0.68 2.38 0 0 Z " fill="#272E56" transform="translate(378,44)"/>
<path d="M0 0 C0.33 0.99 0.66 1.98 1 3 C0.01 3 -0.98 3 -2 3 C-2 2.34 -2 1.68 -2 1 C-4.97 1 -7.94 1 -11 1 C-11 0.67 -11 0.34 -11 0 C-7.01803543 -1.05404945 -4.01804691 -0.84098656 0 0 Z " fill="#353756" transform="translate(187,59)"/>
<path d="M0 0 C0.33 0 0.66 0 1 0 C1 1.65 1 3.3 1 5 C3.31 5.33 5.62 5.66 8 6 C8 6.33 8 6.66 8 7 C3.545 7.495 3.545 7.495 -1 8 C-1 5.16032769 -0.59732819 2.76264289 0 0 Z " fill="#24305E" transform="translate(7,44)"/>
<path d="M0 0 C0.33 0 0.66 0 1 0 C1 2.31 1 4.62 1 7 C-0.32 7.33 -1.64 7.66 -3 8 C-2.67 6.35 -2.34 4.7 -2 3 C-1.34 3 -0.68 3 0 3 C0 2.01 0 1.02 0 0 Z " fill="#2A3453" transform="translate(53,159)"/>
<path d="M0 0 C0.66 0.33 1.32 0.66 2 1 C0.02 3.31 -1.96 5.62 -4 8 C-4.99 7.67 -5.98 7.34 -7 7 C-4.69 4.69 -2.38 2.38 0 0 Z " fill="#31375A" transform="translate(269,68)"/>
<path d="M0 0 C0.33 0 0.66 0 1 0 C1 1.65 1 3.3 1 5 C1.66 5 2.32 5 3 5 C3 5.66 3 6.32 3 7 C1.02 7.66 -0.96 8.32 -3 9 C-3 6 -3 6 -1 4 C-0.3574765 1.93125966 -0.3574765 1.93125966 0 0 Z " fill="#30335E" transform="translate(139,53)"/>
<path d="M0 0 C0 0.66 0 1.32 0 2 C1.65 2.33 3.3 2.66 5 3 C5 3.33 5 3.66 5 4 C2.03 4 -0.94 4 -4 4 C-4 3.01 -4 2.02 -4 1 C-2 0 -2 0 0 0 Z " fill="#2C335A" transform="translate(260,48)"/>
<path d="M0 0 C1.32 0.66 2.64 1.32 4 2 C3.34 3.32 2.68 4.64 2 6 C1.01 4.35 0.02 2.7 -1 1 C-0.67 0.67 -0.34 0.34 0 0 Z " fill="#22295B" transform="translate(108,154)"/>
<path d="M0 0 C0.66 0 1.32 0 2 0 C1.67 2.31 1.34 4.62 1 7 C0.34 7 -0.32 7 -1 7 C-0.67 4.69 -0.34 2.38 0 0 Z " fill="#2F3764" transform="translate(115,26)"/>
</svg>
